ArchivoNarrow-Italic.ufo
<glyph name="exclam" format="2">
  <advance width="228"/>
  <unicode hex="0021"/>
  <outline>
    <contour>
      <point x="80" y="171" type="line"/>
      <point x="142" y="171" type="line"/>
      <point x="241" y="686" type="line"/>
      <point x="128" y="686" type="line"/>
    </contour>
    <contour>
      <point x="38" y="0" type="line"/>
      <point x="138" y="0" type="line"/>
      <point x="153" y="108" type="line"/>
      <point x="53" y="108" type="line"/>
    </contour>
  </outline>
</glyph>
<glyph name="ampersand" format="2">
  <advance width="547"/>
  <unicode hex="0026"/>
  <outline>
    <contour>
      <point x="389" y="0" type="line"/>
      <point x="482" y="0" type="line"/>
      <point x="270" y="400" type="line"/>
      <point x="250" y="430"/>
      <point x="240" y="473"/>
      <point x="240" y="514" type="curve" smooth="yes"/>
      <point x="240" y="574"/>
      <point x="266" y="627"/>
      <point x="322" y="627" type="curve" smooth="yes"/>
      <point x="352" y="627"/>
      <point x="380" y="604"/>
      <point x="380" y="561" type="curve" smooth="yes"/>
      <point x="380" y="479"/>
      <point x="324" y="425"/>
      <point x="245" y="407" type="curve"/>
      <point x="272" y="344" type="line"/>
      <point x="374" y="375"/>
      <point x="462" y="458"/>
      <point x="462" y="568" type="curve" smooth="yes"/>
      <point x="462" y="653"/>
      <point x="398" y="698"/>
      <point x="329" y="698" type="curve" smooth="yes"/>
      <point x="219" y="698"/>
      <point x="160" y="613"/>
      <point x="160" y="509" type="curve" smooth="yes"/>
      <point x="160" y="466"/>
      <point x="168" y="419"/>
      <point x="204" y="351" type="curve" smooth="yes"/>
    </contour>
    <contour>
      <point x="183" y="-13" type="curve" smooth="yes"/>
      <point x="316" y="-13"/>
      <point x="473" y="100"/>
      <point x="526" y="344" type="curve"/>
      <point x="448" y="344" type="line"/>
      <point x="403" y="146"/>
      <point x="282" y="60"/>
      <point x="196" y="60" type="curve" smooth="yes"/>
      <point x="137" y="60"/>
      <point x="106" y="95"/>
      <point x="106" y="162" type="curve" smooth="yes"/>
      <point x="106" y="240"/>
      <point x="154" y="311"/>
      <point x="240" y="333" type="curve"/>
      <point x="211" y="398" type="line"/>
      <point x="90" y="358"/>
      <point x="22" y="265"/>
      <point x="22" y="152" type="curve" smooth="yes"/>
      <point x="22" y="47"/>
      <point x="90" y="-13"/>
    </contour>
  </outline>
</glyph>
<glyph name="one" format="2">
  <advance width="456"/>
  <unicode hex="0031"/>
  <outline>
    <contour>
      <point x="3" y="0" type="line"/>
      <point x="398" y="0" type="line"/>
      <point x="409" y="73" type="line"/>
      <point x="259" y="73" type="line"/>
      <point x="345" y="686" type="line"/>
      <point x="313" y="686" type="line"/>
      <point x="243" y="648"/>
      <point x="145" y="619"/>
      <point x="88" y="613" type="curve"/>
      <point x="81" y="561" type="line"/>
      <point x="245" y="561" type="line"/>
      <point x="177" y="73" type="line"/>
      <point x="14" y="73" type="line"/>
    </contour>
  </outline>
</glyph>
<glyph name="A" format="2">
  <advance width="547"/>
  <unicode hex="0041"/>
  <anchor x="237" y="0" name="bottom"/>
  <anchor x="512" y="0" name="ogonek"/>
  <anchor x="332" y="686" name="top"/>
  <outline>
    <contour>
      <point x="-37" y="0" type="line"/>
      <point x="50" y="0" type="line"/>
      <point x="119" y="153" type="line"/>
      <point x="394" y="153" type="line"/>
      <point x="420" y="0" type="line"/>
      <point x="511" y="0" type="line"/>
      <point x="390" y="686" type="line"/>
      <point x="277" y="686" type="line"/>
    </contour>
    <contour>
      <point x="155" y="233" type="line"/>
      <point x="293" y="538" type="line" smooth="yes"/>
      <point x="303" y="560"/>
      <point x="321" y="614"/>
      <point x="321" y="614" type="curve"/>
      <point x="325" y="614" type="line"/>
      <point x="325" y="614"/>
      <point x="326" y="561"/>
      <point x="330" y="538" type="curve" smooth="yes"/>
      <point x="381" y="233" type="line"/>
    </contour>
  </outline>
</glyph>
<glyph name="E" format="2">
  <advance width="547"/>
  <unicode hex="0045"/>
  <anchor x="265" y="0" name="bottom"/>
  <anchor x="463" y="0" name="ogonek"/>
  <anchor x="342" y="686" name="top"/>
  <outline>
    <contour>
      <point x="34" y="0" type="line"/>
      <point x="463" y="0" type="line"/>
      <point x="475" y="80" type="line"/>
      <point x="134" y="80" type="line"/>
      <point x="166" y="311" type="line"/>
      <point x="457" y="311" type="line"/>
      <point x="468" y="391" type="line"/>
      <point x="177" y="391" type="line"/>
      <point x="207" y="606" type="line"/>
      <point x="542" y="606" type="line"/>
      <point x="554" y="686" type="line"/>
      <point x="131" y="686" type="line"/>
    </contour>
  </outline>
</glyph>
<glyph name="F" format="2">
  <advance width="501"/>
  <unicode hex="0046"/>
  <outline>
    <contour>
      <point x="34" y="0" type="line"/>
      <point x="122" y="0" type="line"/>
      <point x="165" y="304" type="line"/>
      <point x="437" y="304" type="line"/>
      <point x="448" y="384" type="line"/>
      <point x="176" y="384" type="line"/>
      <point x="207" y="606" type="line"/>
      <point x="515" y="606" type="line"/>
      <point x="527" y="686" type="line"/>
      <point x="131" y="686" type="line"/>
    </contour>
  </outline>
</glyph>
<glyph name="H" format="2">
  <advance width="592"/>
  <unicode hex="0048"/>
  <anchor x="336" y="540" name="center"/>
  <anchor x="354" y="686" name="top"/>
  <outline>
    <contour>
      <point x="33" y="0" type="line"/>
      <point x="121" y="0" type="line"/>
      <point x="165" y="311" type="line"/>
      <point x="441" y="311" type="line"/>
      <point x="397" y="0" type="line"/>
      <point x="485" y="0" type="line"/>
      <point x="582" y="686" type="line"/>
      <point x="494" y="686" type="line"/>
      <point x="452" y="391" type="line"/>
      <point x="176" y="391" type="line"/>
      <point x="218" y="686" type="line"/>
      <point x="130" y="686" type="line"/>
    </contour>
  </outline>
</glyph>
<glyph name="I" format="2">
  <advance width="228"/>
  <unicode hex="0049"/>
  <anchor x="77" y="0" name="bottom"/>
  <anchor x="112" y="0" name="ogonek"/>
  <anchor x="176" y="686" name="top"/>
  <anchor x="79" y="686" name="topleft"/>
  <outline>
    <contour>
      <point x="34" y="0" type="line"/>
      <point x="122" y="0" type="line"/>
      <point x="219" y="686" type="line"/>
      <point x="131" y="686" type="line"/>
    </contour>
  </outline>
</glyph>
<glyph name="K" format="2">
  <advance width="547"/>
  <unicode hex="004B"/>
  <anchor x="222" y="0" name="bottom"/>
  <anchor x="317" y="686" name="top"/>
  <outline>
    <contour>
      <point x="34" y="0" type="line"/>
      <point x="122" y="0" type="line"/>
      <point x="152" y="213" type="line"/>
      <point x="279" y="335" type="line"/>
      <point x="401" y="0" type="line"/>
      <point x="499" y="0" type="line"/>
      <point x="344" y="409" type="line"/>
      <point x="589" y="686" type="line"/>
      <point x="484" y="686" type="line"/>
      <point x="168" y="329" type="line"/>
      <point x="219" y="686" type="line"/>
      <point x="131" y="686" type="line"/>
    </contour>
  </outline>
</glyph>
<glyph name="L" format="2">
  <advance width="456"/>
  <unicode hex="004C"/>
  <anchor x="198" y="0" name="bottom"/>
  <anchor x="358" y="350" name="center"/>
  <anchor x="177" y="686" name="top"/>
  <anchor x="297" y="526" name="topright"/>
  <outline>
    <contour>
      <point x="34" y="0" type="line"/>
      <point x="402" y="0" type="line"/>
      <point x="414" y="80" type="line"/>
      <point x="134" y="80" type="line"/>
      <point x="219" y="686" type="line"/>
      <point x="131" y="686" type="line"/>
    </contour>
  </outline>
</glyph>
<glyph name="O" format="2">
  <advance width="638"/>
  <unicode hex="004F"/>
  <anchor x="284" y="0" name="bottom"/>
  <anchor x="332" y="343" name="center"/>
  <anchor x="320" y="0" name="ogonek"/>
  <anchor x="381" y="686" name="top"/>
  <anchor x="81" y="686" name="topleft"/>
  <anchor x="453" y="686" name="topright"/>
  <outline>
    <contour>
      <point x="290" y="-12" type="curve" smooth="yes"/>
      <point x="531" y="-12"/>
      <point x="607" y="246"/>
      <point x="607" y="437" type="curve" smooth="yes"/>
      <point x="607" y="612"/>
      <point x="519" y="698"/>
      <point x="369" y="698" type="curve" smooth="yes"/>
      <point x="128" y="698"/>
      <point x="53" y="438"/>
      <point x="53" y="247" type="curve" smooth="yes"/>
      <point x="53" y="73"/>
      <point x="140" y="-12"/>
    </contour>
    <contour>
      <point x="291" y="69" type="curve" smooth="yes"/>
      <point x="197" y="69"/>
      <point x="143" y="128"/>
      <point x="143" y="249" type="curve" smooth="yes"/>
      <point x="143" y="398"/>
      <point x="188" y="617"/>
      <point x="368" y="617" type="curve" smooth="yes"/>
      <point x="461" y="617"/>
      <point x="516" y="557"/>
      <point x="516" y="437" type="curve" smooth="yes"/>
      <point x="516" y="290"/>
      <point x="472" y="69"/>
    </contour>
  </outline>
</glyph>
<glyph name="P" format="2">
  <advance width="547"/>
  <unicode hex="0050"/>
  <outline>
    <contour>
      <point x="34" y="0" type="line"/>
      <point x="122" y="0" type="line"/>
      <point x="162" y="283" type="line"/>
      <point x="323" y="283" type="line" smooth="yes"/>
      <point x="460" y="283"/>
      <point x="555" y="367"/>
      <point x="555" y="512" type="curve" smooth="yes"/>
      <point x="555" y="615"/>
      <point x="493" y="686"/>
      <point x="366" y="686" type="curve" smooth="yes"/>
      <point x="131" y="686" type="line"/>
    </contour>
    <contour>
      <point x="174" y="363" type="line"/>
      <point x="207" y="606" type="line"/>
      <point x="361" y="606" type="line" smooth="yes"/>
      <point x="427" y="606"/>
      <point x="462" y="562"/>
      <point x="462" y="496" type="curve" smooth="yes"/>
      <point x="462" y="414"/>
      <point x="406" y="363"/>
      <point x="332" y="363" type="curve" smooth="yes"/>
    </contour>
  </outline>
</glyph>
<glyph name="Q" format="2">
  <advance width="638"/>
  <unicode hex="0051"/>
  <outline>
    <contour>
      <point x="400" y="-124" type="line"/>
      <point x="510" y="-124" type="line"/>
      <point x="388" y="5" type="line"/>
      <point x="550" y="66"/>
      <point x="605" y="275"/>
      <point x="605" y="437" type="curve" smooth="yes"/>
      <point x="605" y="612"/>
      <point x="517" y="698"/>
      <point x="367" y="698" type="curve" smooth="yes"/>
      <point x="126" y="698"/>
      <point x="51" y="438"/>
      <point x="51" y="247" type="curve" smooth="yes"/>
      <point x="51" y="78"/>
      <point x="130" y="-12"/>
      <point x="296" y="-12" type="curve"/>
    </contour>
    <contour>
      <point x="289" y="69" type="curve" smooth="yes"/>
      <point x="195" y="69"/>
      <point x="141" y="128"/>
      <point x="141" y="249" type="curve" smooth="yes"/>
      <point x="141" y="398"/>
      <point x="186" y="617"/>
      <point x="366" y="617" type="curve" smooth="yes"/>
      <point x="459" y="617"/>
      <point x="514" y="557"/>
      <point x="514" y="437" type="curve" smooth="yes"/>
      <point x="514" y="290"/>
      <point x="470" y="69"/>
    </contour>
  </outline>
</glyph>
<glyph name="R" format="2">
  <advance width="592"/>
  <unicode hex="0052"/>
  <anchor x="281" y="0" name="bottom"/>
  <anchor x="340" y="686" name="top"/>
  <outline>
    <contour>
      <point x="34" y="0" type="line"/>
      <point x="122" y="0" type="line"/>
      <point x="165" y="303" type="line"/>
      <point x="350" y="303" type="line"/>
      <point x="438" y="0" type="line"/>
      <point x="531" y="0" type="line"/>
      <point x="439" y="318" type="line"/>
      <point x="527" y="348"/>
      <point x="583" y="426"/>
      <point x="583" y="527" type="curve" smooth="yes"/>
      <point x="583" y="622"/>
      <point x="527" y="686"/>
      <point x="397" y="686" type="curve" smooth="yes"/>
      <point x="131" y="686" type="line"/>
    </contour>
    <contour>
      <point x="176" y="383" type="line"/>
      <point x="207" y="606" type="line"/>
      <point x="384" y="606" type="line" smooth="yes"/>
      <point x="454" y="606"/>
      <point x="491" y="572"/>
      <point x="491" y="513" type="curve" smooth="yes"/>
      <point x="491" y="436"/>
      <point x="430" y="383"/>
      <point x="353" y="383" type="curve" smooth="yes"/>
    </contour>
  </outline>
</glyph>
<glyph name="T" format="2">
  <advance width="501"/>
  <unicode hex="0054"/>
  <anchor x="211" y="0" name="bottom"/>
  <anchor x="259" y="343" name="center"/>
  <anchor x="308" y="686" name="top"/>
  <outline>
    <contour>
      <point x="166" y="0" type="line"/>
      <point x="254" y="0" type="line"/>
      <point x="339" y="606" type="line"/>
      <point x="526" y="606" type="line"/>
      <point x="538" y="686" type="line"/>
      <point x="76" y="686" type="line"/>
      <point x="64" y="606" type="line"/>
      <point x="251" y="606" type="line"/>
    </contour>
  </outline>
</glyph>
<glyph name="W" format="2">
  <advance width="774"/>
  <unicode hex="0057"/>
  <anchor x="451" y="686" name="top"/>
  <outline>
    <contour>
      <point x="139" y="0" type="line"/>
      <point x="253" y="0" type="line"/>
      <point x="401" y="465" type="line"/>
      <point x="415" y="511"/>
      <point x="436" y="603"/>
      <point x="436" y="603" type="curve"/>
      <point x="441" y="603" type="line"/>
      <point x="443" y="556"/>
      <point x="444" y="510"/>
      <point x="446" y="463" type="curve"/>
      <point x="461" y="0" type="line"/>
      <point x="575" y="0" type="line"/>
      <point x="831" y="686" type="line"/>
      <point x="749" y="686" type="line"/>
      <point x="578" y="212" type="line" smooth="yes"/>
      <point x="562" y="167"/>
      <point x="540" y="90"/>
      <point x="540" y="90" type="curve"/>
      <point x="536" y="90" type="line"/>
      <point x="536" y="90"/>
      <point x="536" y="181"/>
      <point x="535" y="212" type="curve" smooth="yes"/>
      <point x="518" y="686" type="line"/>
      <point x="391" y="686" type="line"/>
      <point x="247" y="212" type="line" smooth="yes"/>
      <point x="229" y="152"/>
      <point x="213" y="90"/>
      <point x="213" y="90" type="curve"/>
      <point x="209" y="90" type="line"/>
      <point x="209" y="90"/>
      <point x="208" y="172"/>
      <point x="205" y="212" type="curve"/>
      <point x="166" y="686" type="line"/>
      <point x="77" y="686" type="line"/>
    </contour>
  </outline>
</glyph>
<glyph name="X" format="2">
  <advance width="547"/>
  <unicode hex="0058"/>
  <outline>
    <contour>
      <point x="-31" y="0" type="line"/>
      <point x="66" y="0" type="line"/>
      <point x="276" y="280" type="line"/>
      <point x="277" y="280" type="line"/>
      <point x="408" y="0" type="line"/>
      <point x="507" y="0" type="line"/>
      <point x="338" y="361" type="line"/>
      <point x="582" y="686" type="line"/>
      <point x="483" y="686" type="line"/>
      <point x="302" y="441" type="line"/>
      <point x="301" y="441" type="line"/>
      <point x="185" y="686" type="line"/>
      <point x="85" y="686" type="line"/>
      <point x="239" y="360" type="line"/>
    </contour>
  </outline>
</glyph>
<glyph name="Y" format="2">
  <advance width="547"/>
  <unicode hex="0059"/>
  <anchor x="237" y="0" name="bottom"/>
  <anchor x="339" y="686" name="top"/>
  <anchor x="79" y="686" name="topleft"/>
  <outline>
    <contour>
      <point x="195" y="0" type="line"/>
      <point x="283" y="0" type="line"/>
      <point x="323" y="284" type="line"/>
      <point x="601" y="686" type="line"/>
      <point x="509" y="686" type="line"/>
      <point x="295" y="368" type="line"/>
      <point x="291" y="368" type="line"/>
      <point x="166" y="686" type="line"/>
      <point x="70" y="686" type="line"/>
      <point x="235" y="284" type="line"/>
    </contour>
  </outline>
</glyph>
<glyph name="Z" format="2">
  <advance width="501"/>
  <unicode hex="005A"/>
  <anchor x="312" y="686" name="top"/>
  <outline>
    <contour>
      <point x="-16" y="0" type="line"/>
      <point x="439" y="0" type="line"/>
      <point x="451" y="80" type="line"/>
      <point x="121" y="80" type="line"/>
      <point x="523" y="648" type="line"/>
      <point x="526" y="686" type="line"/>
      <point x="98" y="686" type="line"/>
      <point x="86" y="606" type="line"/>
      <point x="388" y="606" type="line"/>
      <point x="-13" y="38" type="line"/>
    </contour>
  </outline>
</glyph>
<glyph name="k" format="2">
  <advance width="410"/>
  <unicode hex="006B"/>
  <anchor x="182" y="0" name="bottom"/>
  <outline>
    <contour>
      <point x="19" y="0" type="line"/>
      <point x="101" y="0" type="line"/>
      <point x="127" y="187" type="line"/>
      <point x="192" y="242" type="line"/>
      <point x="280" y="0" type="line"/>
      <point x="370" y="0" type="line"/>
      <point x="250" y="310" type="line"/>
      <point x="436" y="526" type="line"/>
      <point x="338" y="526" type="line"/>
      <point x="141" y="292" type="line"/>
      <point x="202" y="723" type="line"/>
      <point x="120" y="723" type="line"/>
    </contour>
  </outline>
</glyph>
<glyph name="l" format="2">
  <advance width="182"/>
  <unicode hex="006C"/>
  <anchor x="56" y="0" name="bottom"/>
  <anchor x="241" y="362" name="center"/>
  <anchor x="156" y="700" name="top"/>
  <anchor x="201" y="526" name="topright"/>
  <outline>
    <contour>
      <point x="16" y="0" type="line"/>
      <point x="97" y="0" type="line"/>
      <point x="198" y="723" type="line"/>
      <point x="116" y="723" type="line"/>
    </contour>
  </outline>
</glyph>
<glyph name="o" format="2">
  <advance width="456"/>
  <unicode hex="006F"/>
  <anchor x="191" y="0" name="bottom"/>
  <anchor x="228" y="263" name="center"/>
  <anchor x="224" y="0" name="ogonek"/>
  <anchor x="265" y="526" name="top"/>
  <anchor x="293" y="526" name="topright"/>
  <outline>
    <contour>
      <point x="199" y="-12" type="curve" smooth="yes"/>
      <point x="381" y="-12"/>
      <point x="422" y="205"/>
      <point x="422" y="349" type="curve" smooth="yes"/>
      <point x="422" y="478"/>
      <point x="364" y="538"/>
      <point x="256" y="538" type="curve" smooth="yes"/>
      <point x="74" y="538"/>
      <point x="33" y="319"/>
      <point x="33" y="175" type="curve" smooth="yes"/>
      <point x="33" y="47"/>
      <point x="91" y="-12"/>
    </contour>
    <contour>
      <point x="199" y="61" type="curve" smooth="yes"/>
      <point x="142" y="61"/>
      <point x="118" y="102"/>
      <point x="118" y="186" type="curve" smooth="yes"/>
      <point x="118" y="255"/>
      <point x="135" y="465"/>
      <point x="256" y="465" type="curve" smooth="yes"/>
      <point x="310" y="465"/>
      <point x="337" y="425"/>
      <point x="337" y="348" type="curve" smooth="yes"/>
      <point x="337" y="277"/>
      <point x="321" y="61"/>
    </contour>
  </outline>
</glyph>
<glyph name="q" format="2">
  <advance width="456"/>
  <unicode hex="0071"/>
  <outline>
    <contour>
      <point x="252" y="-173" type="line"/>
      <point x="334" y="-173" type="line"/>
      <point x="432" y="526" type="line"/>
      <point x="367" y="526" type="line"/>
      <point x="349" y="453" type="line"/>
      <point x="328" y="518"/>
      <point x="286" y="538"/>
      <point x="236" y="538" type="curve" smooth="yes"/>
      <point x="138" y="538"/>
      <point x="33" y="424"/>
      <point x="33" y="183" type="curve" smooth="yes"/>
      <point x="33" y="48"/>
      <point x="89" y="-12"/>
      <point x="166" y="-12" type="curve" smooth="yes"/>
      <point x="212" y="-12"/>
      <point x="247" y="10"/>
      <point x="284" y="60" type="curve"/>
    </contour>
    <contour>
      <point x="191" y="61" type="curve" smooth="yes"/>
      <point x="142" y="61"/>
      <point x="117" y="99"/>
      <point x="117" y="175" type="curve" smooth="yes"/>
      <point x="117" y="261"/>
      <point x="141" y="465"/>
      <point x="248" y="465" type="curve" smooth="yes"/>
      <point x="297" y="465"/>
      <point x="321" y="427"/>
      <point x="321" y="352" type="curve" smooth="yes"/>
      <point x="321" y="272"/>
      <point x="295" y="61"/>
    </contour>
  </outline>
</glyph>
<glyph name="v" format="2">
  <advance width="410"/>
  <unicode hex="0076"/>
  <outline>
    <contour>
      <point x="124" y="0" type="line"/>
      <point x="213" y="0" type="line"/>
      <point x="447" y="526" type="line"/>
      <point x="359" y="526" type="line"/>
      <point x="242" y="242" type="line"/>
      <point x="225" y="201"/>
      <point x="208" y="160"/>
      <point x="191" y="119" type="curve"/>
      <point x="187" y="119" type="line"/>
      <point x="182" y="160"/>
      <point x="176" y="202"/>
      <point x="171" y="243" type="curve"/>
      <point x="133" y="526" type="line"/>
      <point x="46" y="526" type="line"/>
    </contour>
  </outline>
</glyph>
<glyph name="y" format="2">
  <advance width="410"/>
  <unicode hex="0079"/>
  <anchor x="293" y="0" name="bottom"/>
  <anchor x="247" y="526" name="top"/>
  <outline>
    <contour>
      <point x="35" y="-182" type="curve" smooth="yes"/>
      <point x="127" y="-182"/>
      <point x="185" y="-87"/>
      <point x="234" y="27" type="curve" smooth="yes"/>
      <point x="448" y="526" type="line"/>
      <point x="360" y="526" type="line"/>
      <point x="238" y="209" type="line"/>
      <point x="225" y="175"/>
      <point x="211" y="140"/>
      <point x="198" y="106" type="curve"/>
      <point x="194" y="106" type="line"/>
      <point x="189" y="140"/>
      <point x="184" y="175"/>
      <point x="179" y="209" type="curve"/>
      <point x="134" y="526" type="line"/>
      <point x="47" y="526" type="line"/>
      <point x="134" y="0" type="line"/>
      <point x="103" y="-90"/>
      <point x="58" y="-117"/>
      <point x="14" y="-117" type="curve" smooth="yes"/>
      <point x="-14" y="-117" type="line"/>
      <point x="-22" y="-174" type="line"/>
      <point x="-7" y="-180"/>
      <point x="12" y="-182"/>
    </contour>
  </outline>
</glyph>
<glyph name="exclamdown" format="2">
  <advance width="273"/>
  <unicode hex="00A1"/>
  <outline>
    <contour>
      <point x="47" y="-160" type="line"/>
      <point x="160" y="-160" type="line"/>
      <point x="207" y="355" type="line"/>
      <point x="145" y="355" type="line"/>
    </contour>
    <contour>
      <point x="136" y="418" type="line"/>
      <point x="236" y="418" type="line"/>
      <point x="251" y="526" type="line"/>
      <point x="151" y="526" type="line"/>
    </contour>
  </outline>
</glyph>
<glyph name="dieresis" format="2">
  <advance width="273"/>
  <unicode hex="00A8"/>
  <anchor x="186" y="526" name="_top"/>
  <outline>
    <contour>
      <point x="233" y="628" type="line"/>
      <point x="320" y="628" type="line"/>
      <point x="333" y="723" type="line"/>
      <point x="246" y="723" type="line"/>
    </contour>
    <contour>
      <point x="83" y="628" type="line"/>
      <point x="170" y="628" type="line"/>
      <point x="183" y="723" type="line"/>
      <point x="96" y="723" type="line"/>
    </contour>
  </outline>
</glyph>
<glyph name="guillemetleft" format="2">
  <advance width="456"/>
  <unicode hex="00AB"/>
  <outline>
    <contour>
      <point x="318" y="126" type="line"/>
      <point x="388" y="126" type="line"/>
      <point x="305" y="326" type="line"/>
      <point x="445" y="526" type="line"/>
      <point x="373" y="526" type="line"/>
      <point x="205" y="326" type="line"/>
    </contour>
    <contour>
      <point x="166" y="126" type="line"/>
      <point x="237" y="126" type="line"/>
      <point x="153" y="326" type="line"/>
      <point x="294" y="526" type="line"/>
      <point x="221" y="526" type="line"/>
      <point x="54" y="326" type="line"/>
    </contour>
  </outline>
</glyph>
<glyph name="registered" format="2">
  <advance width="604"/>
  <unicode hex="00AE"/>
  <outline>
    <contour>
      <point x="302" y="-12" type="curve" smooth="yes"/>
      <point x="477" y="-12"/>
      <point x="583" y="127"/>
      <point x="583" y="343" type="curve" smooth="yes"/>
      <point x="583" y="559"/>
      <point x="477" y="698"/>
      <point x="302" y="698" type="curve" smooth="yes"/>
      <point x="127" y="698"/>
      <point x="21" y="559"/>
      <point x="21" y="343" type="curve" smooth="yes"/>
      <point x="21" y="127"/>
      <point x="127" y="-12"/>
    </contour>
    <contour>
      <point x="302" y="35" type="curve" smooth="yes"/>
      <point x="156" y="35"/>
      <point x="67" y="156"/>
      <point x="67" y="343" type="curve" smooth="yes"/>
      <point x="67" y="530"/>
      <point x="156" y="651"/>
      <point x="302" y="651" type="curve" smooth="yes"/>
      <point x="448" y="651"/>
      <point x="537" y="530"/>
      <point x="537" y="343" type="curve" smooth="yes"/>
      <point x="537" y="156"/>
      <point x="448" y="35"/>
    </contour>
    <contour>
      <point x="177" y="148" type="line"/>
      <point x="234" y="148" type="line"/>
      <point x="234" y="303" type="line"/>
      <point x="332" y="303" type="line"/>
      <point x="406" y="148" type="line"/>
      <point x="466" y="148" type="line"/>
      <point x="383" y="324" type="line"/>
      <point x="415" y="338"/>
      <point x="441" y="381"/>
      <point x="441" y="435" type="curve" smooth="yes"/>
      <point x="441" y="505"/>
      <point x="396" y="550"/>
      <point x="328" y="550" type="curve" smooth="yes"/>
      <point x="177" y="550" type="line"/>
    </contour>
    <contour>
      <point x="234" y="356" type="line"/>
      <point x="234" y="497" type="line"/>
      <point x="310" y="497" type="line" smooth="yes"/>
      <point x="360" y="497"/>
      <point x="382" y="472"/>
      <point x="382" y="428" type="curve" smooth="yes"/>
      <point x="382" y="382"/>
      <point x="360" y="356"/>
      <point x="310" y="356" type="curve" smooth="yes"/>
    </contour>
  </outline>
</glyph>
<glyph name="macron" format="2">
  <advance width="273"/>
  <unicode hex="00AF"/>
  <anchor x="199" y="526" name="_top"/>
  <outline>
    <contour>
      <point x="80" y="599" type="line"/>
      <point x="330" y="599" type="line"/>
      <point x="341" y="671" type="line"/>
      <point x="91" y="671" type="line"/>
    </contour>
  </outline>
</glyph>
<glyph name="twosuperior" format="2">
  <advance width="273"/>
  <unicode hex="00B2"/>
  <outline>
    <contour>
      <point x="58" y="435" type="line"/>
      <point x="272" y="435" type="line"/>
      <point x="280" y="491" type="line"/>
      <point x="149" y="491" type="line"/>
      <point x="160" y="514"/>
      <point x="184" y="534"/>
      <point x="210" y="556" type="curve" smooth="yes"/>
      <point x="255" y="594"/>
      <point x="306" y="637"/>
      <point x="306" y="712" type="curve" smooth="yes"/>
      <point x="306" y="774"/>
      <point x="266" y="799"/>
      <point x="210" y="799" type="curve" smooth="yes"/>
      <point x="140" y="799"/>
      <point x="90" y="746"/>
      <point x="90" y="666" type="curve" smooth="yes"/>
      <point x="90" y="658"/>
      <point x="91" y="653"/>
      <point x="91" y="653" type="curve"/>
      <point x="154" y="653" type="line"/>
      <point x="157" y="682" type="line" smooth="yes"/>
      <point x="161" y="717"/>
      <point x="180" y="740"/>
      <point x="205" y="740" type="curve" smooth="yes"/>
      <point x="233" y="740"/>
      <point x="242" y="720"/>
      <point x="242" y="701" type="curve" smooth="yes"/>
      <point x="242" y="664"/>
      <point x="205" y="632"/>
      <point x="165" y="596" type="curve" smooth="yes"/>
      <point x="119" y="555"/>
      <point x="68" y="512"/>
      <point x="60" y="451" type="curve" smooth="yes"/>
    </contour>
  </outline>
</glyph>
<glyph name="threesuperior" format="2">
  <advance width="273"/>
  <unicode hex="00B3"/>
  <outline>
    <contour>
      <point x="162" y="428" type="curve" smooth="yes"/>
      <point x="234" y="428"/>
      <point x="287" y="479"/>
      <point x="287" y="549" type="curve" smooth="yes"/>
      <point x="287" y="578"/>
      <point x="273" y="606"/>
      <point x="249" y="621" type="curve"/>
      <point x="278" y="640"/>
      <point x="305" y="670"/>
      <point x="305" y="721" type="curve" smooth="yes"/>
      <point x="305" y="774"/>
      <point x="268" y="799"/>
      <point x="212" y="799" type="curve" smooth="yes"/>
      <point x="150" y="799"/>
      <point x="101" y="760"/>
      <point x="94" y="702" type="curve" smooth="yes"/>
      <point x="91" y="677" type="line"/>
      <point x="154" y="677" type="line"/>
      <point x="157" y="697" type="line" smooth="yes"/>
      <point x="161" y="724"/>
      <point x="181" y="742"/>
      <point x="205" y="742" type="curve" smooth="yes"/>
      <point x="223" y="742"/>
      <point x="241" y="734"/>
      <point x="241" y="709" type="curve" smooth="yes"/>
      <point x="241" y="674"/>
      <point x="216" y="644"/>
      <point x="188" y="644" type="curve" smooth="yes"/>
      <point x="162" y="644" type="line"/>
      <point x="155" y="591" type="line"/>
      <point x="180" y="591" type="line" smooth="yes"/>
      <point x="203" y="591"/>
      <point x="224" y="580"/>
      <point x="224" y="549" type="curve" smooth="yes"/>
      <point x="224" y="509"/>
      <point x="203" y="485"/>
      <point x="166" y="485" type="curve" smooth="yes"/>
      <point x="139" y="485"/>
      <point x="123" y="504"/>
      <point x="128" y="534" type="curve" smooth="yes"/>
      <point x="130" y="547" type="line"/>
      <point x="66" y="547" type="line"/>
      <point x="64" y="536" type="line" smooth="yes"/>
      <point x="51" y="462"/>
      <point x="89" y="428"/>
    </contour>
  </outline>
</glyph>
<glyph name="acute" format="2">
  <advance width="273"/>
  <unicode hex="00B4"/>
  <anchor x="175" y="526" name="_top"/>
  <outline>
    <contour>
      <point x="132" y="591" type="line"/>
      <point x="201" y="591" type="line"/>
      <point x="309" y="720" type="line"/>
      <point x="308" y="723" type="line"/>
      <point x="218" y="723" type="line"/>
    </contour>
  </outline>
</glyph>
<glyph name="onesuperior" format="2">
  <advance width="273"/>
  <unicode hex="00B9"/>
  <outline>
    <contour>
      <point x="68" y="435" type="line"/>
      <point x="272" y="435" type="line"/>
      <point x="280" y="491" type="line"/>
      <point x="213" y="491" type="line"/>
      <point x="255" y="786" type="line"/>
      <point x="225" y="786" type="line"/>
      <point x="191" y="766"/>
      <point x="143" y="751"/>
      <point x="111" y="747" type="curve"/>
      <point x="106" y="709" type="line"/>
      <point x="178" y="709" type="line"/>
      <point x="147" y="491" type="line"/>
      <point x="76" y="491" type="line"/>
    </contour>
  </outline>
</glyph>
<glyph name="multiply" format="2">
  <advance width="479"/>
  <unicode hex="00D7"/>
  <outline>
    <contour>
      <point x="63" y="45" type="line"/>
      <point x="238" y="195" type="line"/>
      <point x="370" y="45" type="line"/>
      <point x="433" y="104" type="line"/>
      <point x="301" y="255" type="line"/>
      <point x="476" y="407" type="line"/>
      <point x="429" y="466" type="line"/>
      <point x="255" y="314" type="line"/>
      <point x="122" y="466" type="line"/>
      <point x="59" y="407" type="line"/>
      <point x="190" y="255" type="line"/>
      <point x="16" y="104" type="line"/>
    </contour>
  </outline>
</glyph>
<glyph name="Oslash" format="2">
  <advance width="638"/>
  <unicode hex="00D8"/>
  <anchor x="282" y="0" name="bottom"/>
  <anchor x="379" y="686" name="top"/>
  <outline>
    <contour>
      <point x="50" y="-37" type="line"/>
      <point x="114" y="-37" type="line"/>
      <point x="605" y="723" type="line"/>
      <point x="541" y="723" type="line"/>
    </contour>
    <component base="O"/>
  </outline>
</glyph>
<glyph name="dcroat" format="2">
  <advance width="456"/>
  <unicode hex="0111"/>
  <outline>
    <contour>
      <point x="243" y="583" type="line"/>
      <point x="496" y="583" type="line"/>
      <point x="506" y="651" type="line"/>
      <point x="253" y="651" type="line"/>
    </contour>
    <component base="d"/>
  </outline>
</glyph>
<glyph name="hbar" format="2">
  <advance width="456"/>
  <unicode hex="0127"/>
  <outline>
    <contour>
      <point x="48" y="596" type="line"/>
      <point x="298" y="596" type="line"/>
      <point x="306" y="658" type="line"/>
      <point x="56" y="658" type="line"/>
    </contour>
    <component base="h"/>
  </outline>
</glyph>
<glyph name="kgreenlandic" format="2">
  <advance width="410"/>
  <unicode hex="0138"/>
  <outline>
    <contour>
      <point x="19" y="0" type="line"/>
      <point x="101" y="0" type="line"/>
      <point x="127" y="187" type="line"/>
      <point x="192" y="242" type="line"/>
      <point x="280" y="0" type="line"/>
      <point x="370" y="0" type="line"/>
      <point x="250" y="310" type="line"/>
      <point x="436" y="526" type="line"/>
      <point x="338" y="526" type="line"/>
      <point x="141" y="292" type="line"/>
      <point x="174" y="526" type="line"/>
      <point x="92" y="526" type="line"/>
    </contour>
  </outline>
</glyph>
<glyph name="Lslash" format="2">
  <advance width="456"/>
  <unicode hex="0141"/>
  <outline>
    <contour>
      <point x="34" y="0" type="line"/>
      <point x="402" y="0" type="line"/>
      <point x="414" y="80" type="line"/>
      <point x="134" y="80" type="line"/>
      <point x="167" y="314" type="line"/>
      <point x="341" y="453" type="line"/>
      <point x="353" y="536" type="line"/>
      <point x="178" y="396" type="line"/>
      <point x="219" y="686" type="line"/>
      <point x="131" y="686" type="line"/>
      <point x="81" y="331" type="line"/>
      <point x="5" y="271" type="line"/>
      <point x="-7" y="190" type="line"/>
      <point x="69" y="250" type="line"/>
    </contour>
  </outline>
</glyph>
<glyph name="lslash" format="2">
  <advance width="182"/>
  <unicode hex="0142"/>
  <outline>
    <contour>
      <point x="-31" y="183" type="line"/>
      <point x="239" y="396" type="line"/>
      <point x="251" y="479" type="line"/>
      <point x="-19" y="264" type="line"/>
    </contour>
    <component base="l"/>
  </outline>
</glyph>
<glyph name="eng" format="2">
  <advance width="456"/>
  <unicode hex="014B"/>
  <outline>
    <contour>
      <point x="230" y="-182" type="curve" smooth="yes"/>
      <point x="309" y="-182"/>
      <point x="339" y="-125"/>
      <point x="350" y="-61" type="curve" smooth="yes"/>
      <point x="411" y="400" type="line" smooth="yes"/>
      <point x="422" y="479"/>
      <point x="387" y="538"/>
      <point x="300" y="538" type="curve" smooth="yes"/>
      <point x="216" y="538"/>
      <point x="175" y="478"/>
      <point x="160" y="448" type="curve"/>
      <point x="160" y="526" type="line"/>
      <point x="96" y="526" type="line"/>
      <point x="22" y="0" type="line"/>
      <point x="104" y="0" type="line"/>
      <point x="145" y="294" type="line" smooth="yes"/>
      <point x="159" y="395"/>
      <point x="203" y="465"/>
      <point x="270" y="465" type="curve" smooth="yes"/>
      <point x="309" y="465"/>
      <point x="335" y="442"/>
      <point x="329" y="397" type="curve" smooth="yes"/>
      <point x="267" y="-65" type="line" smooth="yes"/>
      <point x="263" y="-96"/>
      <point x="246" y="-113"/>
      <point x="215" y="-113" type="curve" smooth="yes"/>
      <point x="171" y="-113" type="line"/>
      <point x="163" y="-170" type="line"/>
      <point x="179" y="-176"/>
      <point x="206" y="-182"/>
    </contour>
  </outline>
</glyph>
<glyph name="OE" format="2">
  <advance width="820"/>
  <unicode hex="0152"/>
  <anchor x="410" y="686" name="top"/>
  <outline>
    <contour>
      <point x="223" y="-12" type="curve" smooth="yes"/>
      <point x="287" y="-12"/>
      <point x="341" y="14"/>
      <point x="386" y="68" type="curve"/>
      <point x="376" y="0" type="line"/>
      <point x="742" y="0" type="line"/>
      <point x="754" y="80" type="line"/>
      <point x="476" y="80" type="line"/>
      <point x="508" y="311" type="line"/>
      <point x="736" y="311" type="line"/>
      <point x="747" y="391" type="line"/>
      <point x="519" y="391" type="line"/>
      <point x="549" y="606" type="line"/>
      <point x="821" y="606" type="line"/>
      <point x="833" y="686" type="line"/>
      <point x="473" y="686" type="line"/>
      <point x="463" y="618" type="line"/>
      <point x="434" y="671"/>
      <point x="386" y="698"/>
      <point x="322" y="698" type="curve" smooth="yes"/>
      <point x="100" y="698"/>
      <point x="40" y="394"/>
      <point x="40" y="231" type="curve" smooth="yes"/>
      <point x="40" y="68"/>
      <point x="106" y="-12"/>
    </contour>
    <contour>
      <point x="244" y="69" type="curve" smooth="yes"/>
      <point x="172" y="69"/>
      <point x="131" y="124"/>
      <point x="131" y="235" type="curve" smooth="yes"/>
      <point x="131" y="354"/>
      <point x="169" y="617"/>
      <point x="321" y="617" type="curve" smooth="yes"/>
      <point x="393" y="617"/>
      <point x="434" y="562"/>
      <point x="434" y="451" type="curve" smooth="yes"/>
      <point x="434" y="331"/>
      <point x="403" y="69"/>
    </contour>
  </outline>
</glyph>
<glyph name="Schwa" format="2">
  <advance width="600"/>
  <unicode hex="018F"/>
  <outline>
    <contour>
      <point x="258" y="-12" type="curve" smooth="yes"/>
      <point x="456" y="-12"/>
      <point x="568" y="155"/>
      <point x="568" y="454" type="curve" smooth="yes"/>
      <point x="568" y="611"/>
      <point x="491" y="698"/>
      <point x="354" y="698" type="curve" smooth="yes"/>
      <point x="198" y="698"/>
      <point x="99" y="610"/>
      <point x="77" y="451" type="curve"/>
      <point x="163" y="451" type="line"/>
      <point x="178" y="558"/>
      <point x="241" y="617"/>
      <point x="339" y="617" type="curve" smooth="yes"/>
      <point x="452" y="617"/>
      <point x="495" y="537"/>
      <point x="472" y="368" type="curve"/>
      <point x="65" y="368" type="line"/>
      <point x="59" y="326" type="line" smooth="yes"/>
      <point x="29" y="97"/>
      <point x="93" y="-12"/>
    </contour>
    <contour>
      <point x="266" y="69" type="curve" smooth="yes"/>
      <point x="168" y="69"/>
      <point x="125" y="148"/>
      <point x="145" y="290" type="curve"/>
      <point x="460" y="290" type="line"/>
      <point x="434" y="139"/>
      <point x="367" y="69"/>
    </contour>
  </outline>
</glyph>
<glyph name="Fhook" format="2">
  <advance width="501"/>
  <unicode hex="0191"/>
  <outline>
    <contour>
      <point x="-9" y="-182" type="curve" smooth="yes"/>
      <point x="81" y="-182"/>
      <point x="105" y="-121"/>
      <point x="114" y="-61" type="curve" smooth="yes"/>
      <point x="166" y="304" type="line"/>
      <point x="437" y="304" type="line"/>
      <point x="448" y="384" type="line"/>
      <point x="176" y="384" type="line"/>
      <point x="207" y="606" type="line"/>
      <point x="515" y="606" type="line"/>
      <point x="527" y="686" type="line"/>
      <point x="131" y="686" type="line"/>
      <point x="25" y="-65" type="line" smooth="yes"/>
      <point x="21" y="-96"/>
      <point x="2" y="-113"/>
      <point x="-29" y="-113" type="curve" smooth="yes"/>
      <point x="-73" y="-113" type="line"/>
      <point x="-83" y="-170" type="line"/>
      <point x="-67" y="-176"/>
      <point x="-33" y="-182"/>
    </contour>
  </outline>
</glyph>
<glyph name="Nhookleft" format="2">
  <advance width="592"/>
  <unicode hex="019D"/>
  <outline>
    <contour>
      <point x="-13" y="-182" type="curve" smooth="yes"/>
      <point x="65" y="-182"/>
      <point x="95" y="-121"/>
      <point x="103" y="-61" type="curve" smooth="yes"/>
      <point x="174" y="437" type="line" smooth="yes"/>
      <point x="177" y="457"/>
      <point x="181" y="501"/>
      <point x="183" y="528" type="curve"/>
      <point x="186" y="529" type="line"/>
      <point x="195" y="502"/>
      <point x="210" y="458"/>
      <point x="219" y="437" type="curve" smooth="yes"/>
      <point x="416" y="0" type="line"/>
      <point x="485" y="0" type="line"/>
      <point x="582" y="686" type="line"/>
      <point x="503" y="686" type="line"/>
      <point x="442" y="255" type="line" smooth="yes"/>
      <point x="440" y="239"/>
      <point x="435" y="194"/>
      <point x="432" y="164" type="curve"/>
      <point x="429" y="163" type="line"/>
      <point x="420" y="191"/>
      <point x="405" y="236"/>
      <point x="397" y="255" type="curve" smooth="yes"/>
      <point x="202" y="686" type="line"/>
      <point x="130" y="686" type="line"/>
      <point x="24" y="-65" type="line" smooth="yes"/>
      <point x="20" y="-96"/>
      <point x="2" y="-113"/>
      <point x="-29" y="-113" type="curve" smooth="yes"/>
      <point x="-72" y="-113" type="line"/>
      <point x="-80" y="-170" type="line"/>
      <point x="-64" y="-176"/>
      <point x="-37" y="-182"/>
    </contour>
  </outline>
</glyph>
<glyph name="Aringacute" format="2">
  <advance width="547"/>
  <unicode hex="01FA"/>
  <outline>
    <contour>
      <point x="-37" y="0" type="line"/>
      <point x="50" y="0" type="line"/>
      <point x="119" y="153" type="line"/>
      <point x="394" y="153" type="line"/>
      <point x="420" y="0" type="line"/>
      <point x="511" y="0" type="line"/>
      <point x="394" y="665" type="line"/>
      <point x="414" y="682"/>
      <point x="427" y="708"/>
      <point x="427" y="737" type="curve" smooth="yes"/>
      <point x="427" y="785"/>
      <point x="391" y="821"/>
      <point x="341" y="821" type="curve" smooth="yes"/>
      <point x="291" y="821"/>
      <point x="242" y="781"/>
      <point x="242" y="723" type="curve" smooth="yes"/>
      <point x="242" y="699"/>
      <point x="251" y="678"/>
      <point x="267" y="663" type="curve"/>
    </contour>
    <contour>
      <point x="155" y="233" type="line"/>
      <point x="293" y="538" type="line" smooth="yes"/>
      <point x="303" y="560"/>
      <point x="321" y="614"/>
      <point x="321" y="614" type="curve"/>
      <point x="325" y="614" type="line"/>
      <point x="325" y="614"/>
      <point x="326" y="561"/>
      <point x="330" y="538" type="curve" smooth="yes"/>
      <point x="381" y="233" type="line"/>
    </contour>
    <contour>
      <point x="332" y="679" type="curve" smooth="yes"/>
      <point x="305" y="679"/>
      <point x="287" y="701"/>
      <point x="287" y="726" type="curve" smooth="yes"/>
      <point x="287" y="758"/>
      <point x="310" y="781"/>
      <point x="338" y="781" type="curve" smooth="yes"/>
      <point x="364" y="781"/>
      <point x="383" y="759"/>
      <point x="383" y="734" type="curve" smooth="yes"/>
      <point x="383" y="702"/>
      <point x="359" y="679"/>
    </contour>
    <contour>
      <point x="303" y="848" type="line"/>
      <point x="373" y="848" type="line"/>
      <point x="465" y="954" type="line"/>
      <point x="464" y="957" type="line"/>
      <point x="374" y="957" type="line"/>
    </contour>
  </outline>
</glyph>
<glyph name="jdotless" format="2">
  <advance width="182"/>
  <unicode hex="0237"/>
  <anchor x="28" y="-182" name="bottom"/>
  <anchor x="128" y="526" name="top"/>
  <outline>
    <contour>
      <point x="-32" y="-182" type="curve" smooth="yes"/>
      <point x="47" y="-182"/>
      <point x="79" y="-121"/>
      <point x="88" y="-61" type="curve"/>
      <point x="170" y="526" type="line"/>
      <point x="88" y="526" type="line"/>
      <point x="5" y="-65" type="line"/>
      <point x="2" y="-96"/>
      <point x="-16" y="-113"/>
      <point x="-47" y="-113" type="curve" smooth="yes"/>
      <point x="-91" y="-113" type="line"/>
      <point x="-99" y="-170" type="line"/>
      <point x="-83" y="-176"/>
      <point x="-56" y="-182"/>
    </contour>
  </outline>
</glyph>
<glyph name="nhookleft" format="2">
  <advance width="456"/>
  <unicode hex="0272"/>
  <outline>
    <contour>
      <point x="-91" y="-170" type="line"/>
      <point x="-75" y="-176"/>
      <point x="-48" y="-182"/>
      <point x="-24" y="-182" type="curve" smooth="yes"/>
      <point x="55" y="-182"/>
      <point x="85" y="-125"/>
      <point x="96" y="-61" type="curve" smooth="yes"/>
      <point x="145" y="294" type="line" smooth="yes"/>
      <point x="159" y="395"/>
      <point x="203" y="465"/>
      <point x="270" y="465" type="curve" smooth="yes"/>
      <point x="309" y="465"/>
      <point x="335" y="442"/>
      <point x="329" y="397" type="curve" smooth="yes"/>
      <point x="275" y="1" type="line"/>
      <point x="358" y="1" type="line"/>
      <point x="413" y="410" type="line" smooth="yes"/>
      <point x="422" y="479"/>
      <point x="387" y="538"/>
      <point x="300" y="538" type="curve" smooth="yes"/>
      <point x="216" y="538"/>
      <point x="175" y="478"/>
      <point x="160" y="448" type="curve"/>
      <point x="160" y="526" type="line"/>
      <point x="96" y="526" type="line"/>
      <point x="13" y="-65" type="line" smooth="yes"/>
      <point x="10" y="-96"/>
      <point x="-8" y="-113"/>
      <point x="-39" y="-113" type="curve" smooth="yes"/>
      <point x="-83" y="-113" type="line"/>
    </contour>
  </outline>
</glyph>
<glyph name="apostrophemod" format="2">
  <advance width="100"/>
  <unicode hex="02BC"/>
  <outline>
    <contour>
      <point x="37" y="526" type="line"/>
      <point x="89" y="526" type="line"/>
      <point x="153" y="641" type="line"/>
      <point x="165" y="723" type="line"/>
      <point x="65" y="723" type="line"/>
      <point x="52" y="632" type="line"/>
      <point x="92" y="632" type="line"/>
    </contour>
  </outline>
</glyph>
<glyph name="circumflex" format="2">
  <advance width="273"/>
  <unicode hex="02C6"/>
  <anchor x="138" y="526" name="_top"/>
  <outline>
    <contour>
      <point x="18" y="588" type="line"/>
      <point x="101" y="588" type="line"/>
      <point x="157" y="667" type="line"/>
      <point x="190" y="588" type="line"/>
      <point x="267" y="588" type="line"/>
      <point x="201" y="723" type="line"/>
      <point x="123" y="723" type="line"/>
    </contour>
  </outline>
</glyph>
<glyph name="caron" format="2">
  <advance width="273"/>
  <unicode hex="02C7"/>
  <anchor x="192" y="526" name="_top"/>
  <outline>
    <contour>
      <point x="160" y="588" type="line"/>
      <point x="238" y="588" type="line"/>
      <point x="343" y="723" type="line"/>
      <point x="260" y="723" type="line"/>
      <point x="207" y="644" type="line"/>
      <point x="174" y="723" type="line"/>
      <point x="94" y="723" type="line"/>
    </contour>
  </outline>
</glyph>
<glyph name="uni02C9" format="2">
  <advance width="273"/>
  <unicode hex="02C9"/>
  <outline>
    <contour>
      <point x="59" y="600" type="line"/>
      <point x="309" y="600" type="line"/>
      <point x="319" y="672" type="line"/>
      <point x="69" y="672" type="line"/>
    </contour>
  </outline>
</glyph>
<glyph name="breve" format="2">
  <advance width="273"/>
  <unicode hex="02D8"/>
  <anchor x="113" y="526" name="_top"/>
  <outline>
    <contour>
      <point x="132" y="626" type="curve" smooth="yes"/>
      <point x="206" y="626"/>
      <point x="258" y="678"/>
      <point x="264" y="723" type="curve"/>
      <point x="200" y="723" type="line"/>
      <point x="196" y="709"/>
      <point x="170" y="690"/>
      <point x="136" y="690" type="curve" smooth="yes"/>
      <point x="103" y="690"/>
      <point x="82" y="709"/>
      <point x="81" y="723" type="curve"/>
      <point x="17" y="723" type="line"/>
      <point x="16" y="720"/>
      <point x="16" y="717"/>
      <point x="16" y="714" type="curve" smooth="yes"/>
      <point x="16" y="671"/>
      <point x="58" y="626"/>
    </contour>
  </outline>
</glyph>
<glyph name="dotaccent" format="2">
  <advance width="273"/>
  <unicode hex="02D9"/>
  <anchor x="115" y="526" name="_top"/>
  <outline>
    <contour>
      <point x="86" y="628" type="line"/>
      <point x="173" y="628" type="line"/>
      <point x="186" y="723" type="line"/>
      <point x="99" y="723" type="line"/>
    </contour>
  </outline>
</glyph>
<glyph name="gravecomb" format="2">
  <unicode hex="0300"/>
  <anchor x="161" y="526" name="_top"/>
  <anchor x="188" y="723" name="top"/>
  <outline>
    <contour>
      <point x="154" y="591" type="line"/>
      <point x="223" y="591" type="line"/>
      <point x="155" y="723" type="line"/>
      <point x="65" y="723" type="line"/>
      <point x="64" y="720" type="line"/>
    </contour>
  </outline>
</glyph>
<glyph name="acutecomb" format="2">
  <unicode hex="0301"/>
  <anchor x="95" y="526" name="_top"/>
  <anchor x="122" y="723" name="top"/>
  <outline>
    <contour>
      <point x="46" y="591" type="line"/>
      <point x="115" y="591" type="line"/>
      <point x="241" y="720" type="line"/>
      <point x="240" y="723" type="line"/>
      <point x="150" y="723" type="line"/>
    </contour>
  </outline>
</glyph>
<glyph name="circumflexcomb" format="2">
  <unicode hex="0302"/>
  <anchor x="162" y="526" name="_top"/>
  <anchor x="188" y="693" name="top"/>
  <outline>
    <contour>
      <point x="46" y="587" type="line"/>
      <point x="128" y="587" type="line"/>
      <point x="184" y="666" type="line"/>
      <point x="217" y="587" type="line"/>
      <point x="295" y="587" type="line"/>
      <point x="228" y="722" type="line"/>
      <point x="150" y="722" type="line"/>
    </contour>
  </outline>
</glyph>
<glyph name="tildecomb" format="2">
  <unicode hex="0303"/>
  <anchor x="182" y="526" name="_top"/>
  <anchor x="209" y="723" name="top"/>
  <outline>
    <contour>
      <point x="50" y="619" type="curve"/>
      <point x="108" y="619" type="line"/>
      <point x="114" y="642"/>
      <point x="129" y="650"/>
      <point x="146" y="650" type="curve" smooth="yes"/>
      <point x="185" y="650"/>
      <point x="204" y="619"/>
      <point x="257" y="619" type="curve" smooth="yes"/>
      <point x="317" y="619"/>
      <point x="350" y="677"/>
      <point x="357" y="723" type="curve"/>
      <point x="299" y="723" type="line"/>
      <point x="292" y="700"/>
      <point x="278" y="692"/>
      <point x="260" y="692" type="curve" smooth="yes"/>
      <point x="221" y="692"/>
      <point x="203" y="723"/>
      <point x="150" y="723" type="curve" smooth="yes"/>
      <point x="90" y="723"/>
      <point x="57" y="666"/>
    </contour>
  </outline>
</glyph>
<glyph name="brevecomb" format="2">
  <unicode hex="0306"/>
  <anchor x="161" y="526" name="_top"/>
  <anchor x="178" y="650" name="top"/>
  <outline>
    <contour>
      <point x="168" y="586" type="curve" smooth="yes"/>
      <point x="245" y="586"/>
      <point x="299" y="638"/>
      <point x="306" y="683" type="curve"/>
      <point x="241" y="683" type="line"/>
      <point x="237" y="669"/>
      <point x="210" y="650"/>
      <point x="176" y="650" type="curve" smooth="yes"/>
      <point x="143" y="650"/>
      <point x="123" y="669"/>
      <point x="122" y="683" type="curve"/>
      <point x="59" y="683" type="line"/>
      <point x="52" y="638"/>
      <point x="92" y="586"/>
    </contour>
  </outline>
</glyph>
<glyph name="dotaccentcomb" format="2">
  <unicode hex="0307"/>
  <anchor x="80" y="526" name="_top"/>
  <anchor x="108" y="723" name="top"/>
  <outline>
    <contour>
      <point x="51" y="628" type="line"/>
      <point x="136" y="628" type="line"/>
      <point x="150" y="723" type="line"/>
      <point x="65" y="723" type="line"/>
    </contour>
  </outline>
</glyph>
<glyph name="dieresiscomb" format="2">
  <unicode hex="0308"/>
  <anchor x="156" y="526" name="_top"/>
  <anchor x="184" y="723" name="top"/>
  <outline>
    <contour>
      <point x="201" y="628" type="line"/>
      <point x="288" y="628" type="line"/>
      <point x="302" y="723" type="line"/>
      <point x="215" y="723" type="line"/>
    </contour>
    <contour>
      <point x="51" y="628" type="line"/>
      <point x="138" y="628" type="line"/>
      <point x="152" y="723" type="line"/>
      <point x="65" y="723" type="line"/>
    </contour>
  </outline>
</glyph>
<glyph name="ringcomb" format="2">
  <unicode hex="030A"/>
  <anchor x="133" y="526" name="_top"/>
  <anchor x="161" y="723" name="top"/>
  <outline>
    <contour>
      <point x="138" y="562" type="curve" smooth="yes"/>
      <point x="201" y="562"/>
      <point x="249" y="609"/>
      <point x="249" y="672" type="curve" smooth="yes"/>
      <point x="249" y="719"/>
      <point x="213" y="754"/>
      <point x="165" y="754" type="curve" smooth="yes"/>
      <point x="102" y="754"/>
      <point x="55" y="707"/>
      <point x="55" y="645" type="curve" smooth="yes"/>
      <point x="55" y="598"/>
      <point x="91" y="562"/>
    </contour>
    <contour>
      <point x="145" y="607" type="curve" smooth="yes"/>
      <point x="119" y="607"/>
      <point x="100" y="626"/>
      <point x="100" y="652" type="curve" smooth="yes"/>
      <point x="100" y="684"/>
      <point x="125" y="709"/>
      <point x="159" y="709" type="curve" smooth="yes"/>
      <point x="184" y="709"/>
      <point x="203" y="691"/>
      <point x="203" y="666" type="curve" smooth="yes"/>
      <point x="203" y="632"/>
      <point x="178" y="607"/>
    </contour>
  </outline>
</glyph>
<glyph name="hungarumlautcomb" format="2">
  <unicode hex="030B"/>
  <anchor x="133" y="526" name="_top"/>
  <anchor x="160" y="723" name="top"/>
  <outline>
    <contour>
      <point x="176" y="591" type="line"/>
      <point x="245" y="591" type="line"/>
      <point x="347" y="720" type="line"/>
      <point x="346" y="723" type="line"/>
      <point x="256" y="723" type="line"/>
    </contour>
    <contour>
      <point x="46" y="591" type="line"/>
      <point x="115" y="591" type="line"/>
      <point x="217" y="720" type="line"/>
      <point x="216" y="723" type="line"/>
      <point x="126" y="723" type="line"/>
    </contour>
  </outline>
</glyph>
<glyph name="caroncomb" format="2">
  <unicode hex="030C"/>
  <anchor x="163" y="526" name="_top"/>
  <anchor x="190" y="723" name="top"/>
  <outline>
    <contour>
      <point x="132" y="588" type="line"/>
      <point x="210" y="588" type="line"/>
      <point x="314" y="723" type="line"/>
      <point x="233" y="723" type="line"/>
      <point x="177" y="644" type="line"/>
      <point x="144" y="723" type="line"/>
      <point x="65" y="723" type="line"/>
    </contour>
  </outline>
</glyph>
<glyph name="dblgravecomb" format="2">
  <unicode hex="030F"/>
  <anchor x="219" y="526" name="_top"/>
  <anchor x="246" y="723" name="top"/>
  <outline>
    <contour>
      <point x="130" y="591" type="line"/>
      <point x="200" y="591" type="line"/>
      <point x="156" y="723" type="line"/>
      <point x="65" y="723" type="line"/>
      <point x="64" y="720" type="line"/>
    </contour>
    <contour>
      <point x="261" y="591" type="line"/>
      <point x="329" y="591" type="line"/>
      <point x="285" y="723" type="line"/>
      <point x="196" y="723" type="line"/>
      <point x="195" y="720" type="line"/>
    </contour>
  </outline>
</glyph>
<glyph name="breveinvertedcomb" format="2">
  <unicode hex="0311"/>
  <anchor x="161" y="526" name="_top"/>
  <anchor x="185" y="693" name="top"/>
  <outline>
    <contour>
      <point x="47" y="596" type="curve"/>
      <point x="114" y="596" type="line"/>
      <point x="119" y="610"/>
      <point x="145" y="629"/>
      <point x="178" y="629" type="curve" smooth="yes"/>
      <point x="212" y="629"/>
      <point x="233" y="610"/>
      <point x="233" y="596" type="curve"/>
      <point x="294" y="596" type="line"/>
      <point x="301" y="641"/>
      <point x="261" y="693"/>
      <point x="184" y="693" type="curve" smooth="yes"/>
      <point x="108" y="693"/>
      <point x="54" y="641"/>
    </contour>
  </outline>
</glyph>
<glyph name="horncomb" format="2">
  <unicode hex="031B"/>
  <anchor x="37" y="526" name="_topright"/>
  <anchor x="53" y="640" name="topright"/>
  <outline>
    <contour>
      <point x="30" y="476" type="line"/>
      <point x="104" y="476" type="line" smooth="yes"/>
      <point x="172" y="476"/>
      <point x="214" y="513"/>
      <point x="224" y="579" type="curve" smooth="yes"/>
      <point x="233" y="640" type="line"/>
      <point x="167" y="640" type="line"/>
      <point x="158" y="579" type="line" smooth="yes"/>
      <point x="152" y="541"/>
      <point x="134" y="526"/>
      <point x="92" y="526" type="curve" smooth="yes"/>
      <point x="37" y="526" type="line"/>
    </contour>
  </outline>
</glyph>
<glyph name="dotbelowcomb" format="2">
  <unicode hex="0323"/>
  <anchor x="7" y="0" name="_bottom"/>
  <anchor x="-19" y="-182" name="bottom"/>
  <outline>
    <contour>
      <point x="-63" y="-182" type="line"/>
      <point x="24" y="-182" type="line"/>
      <point x="38" y="-88" type="line"/>
      <point x="-49" y="-88" type="line"/>
    </contour>
  </outline>
</glyph>
<glyph name="dieresisbelowcomb" format="2">
  <unicode hex="0324"/>
  <anchor x="82" y="0" name="_bottom"/>
  <anchor x="56" y="-182" name="bottom"/>
  <outline>
    <contour>
      <point x="87" y="-182" type="line"/>
      <point x="174" y="-182" type="line"/>
      <point x="188" y="-88" type="line"/>
      <point x="101" y="-88" type="line"/>
    </contour>
    <contour>
      <point x="-63" y="-182" type="line"/>
      <point x="24" y="-182" type="line"/>
      <point x="38" y="-88" type="line"/>
      <point x="-49" y="-88" type="line"/>
    </contour>
  </outline>
</glyph>
<glyph name="commaaccentcomb" format="2">
  <unicode hex="0326"/>
  <anchor x="6" y="0" name="_bottom"/>
  <anchor x="-20" y="-182" name="bottom"/>
  <outline>
    <contour>
      <point x="-56" y="-240" type="line"/>
      <point x="-15" y="-240" type="line"/>
      <point x="24" y="-172" type="line"/>
      <point x="36" y="-88" type="line"/>
      <point x="-49" y="-88" type="line"/>
      <point x="-62" y="-179" type="line"/>
      <point x="-27" y="-179" type="line"/>
    </contour>
  </outline>
</glyph>
<glyph name="cedillacomb" format="2">
  <unicode hex="0327"/>
  <anchor x="57" y="0" name="_bottom"/>
  <anchor x="31" y="-182" name="bottom"/>
  <outline>
    <contour>
      <point x="21" y="-182" type="curve" smooth="yes"/>
      <point x="96" y="-182"/>
      <point x="138" y="-149"/>
      <point x="138" y="-91" type="curve" smooth="yes"/>
      <point x="138" y="-59"/>
      <point x="112" y="-40"/>
      <point x="65" y="-36" type="curve"/>
      <point x="79" y="11" type="line"/>
      <point x="24" y="11" type="line"/>
      <point x="-3" y="-77" type="line"/>
      <point x="30" y="-77" type="line" smooth="yes"/>
      <point x="51" y="-77"/>
      <point x="61" y="-83"/>
      <point x="61" y="-96" type="curve" smooth="yes"/>
      <point x="61" y="-116"/>
      <point x="48" y="-125"/>
      <point x="21" y="-125" type="curve"/>
      <point x="-55" y="-125" type="line"/>
      <point x="-61" y="-174" type="line"/>
      <point x="-38" y="-179"/>
      <point x="-7" y="-182"/>
    </contour>
  </outline>
</glyph>
<glyph name="ogonekcomb" format="2">
  <unicode hex="0328"/>
  <anchor x="68" y="0" name="_ogonek"/>
  <outline>
    <contour>
      <point x="29" y="-182" type="curve" smooth="yes"/>
      <point x="49" y="-182"/>
      <point x="71" y="-177"/>
      <point x="93" y="-168" type="curve"/>
      <point x="101" y="-117" type="line"/>
      <point x="76" y="-117" type="line" smooth="yes"/>
      <point x="37" y="-117"/>
      <point x="22" y="-105"/>
      <point x="22" y="-81" type="curve" smooth="yes"/>
      <point x="22" y="-60"/>
      <point x="39" y="-32"/>
      <point x="68" y="0" type="curve"/>
      <point x="67" y="4" type="line"/>
      <point x="9" y="4" type="line"/>
      <point x="-32" y="-41"/>
      <point x="-52" y="-77"/>
      <point x="-52" y="-110" type="curve" smooth="yes"/>
      <point x="-52" y="-157"/>
      <point x="-18" y="-182"/>
    </contour>
  </outline>
</glyph>
<glyph name="strokeshortcomb" format="2">
  <unicode hex="0335"/>
  <anchor x="263" y="354" name="_center"/>
  <outline>
    <contour>
      <point x="9" y="327" type="line"/>
      <point x="508" y="327" type="line"/>
      <point x="516" y="380" type="line"/>
      <point x="17" y="380" type="line"/>
    </contour>
  </outline>
</glyph>
<glyph name="strokelongcomb" format="2">
  <unicode hex="0336"/>
  <anchor x="292" y="370" name="_center"/>
  <outline>
    <contour>
      <point x="11" y="331" type="line"/>
      <point x="563" y="331" type="line"/>
      <point x="573" y="409" type="line"/>
      <point x="21" y="409" type="line"/>
    </contour>
  </outline>
</glyph>
<glyph name="slashshortcomb" format="2">
  <unicode hex="0337"/>
  <anchor x="105" y="357" name="_center"/>
  <outline>
    <contour>
      <point x="-5" y="227" type="line"/>
      <point x="203" y="411" type="line"/>
      <point x="214" y="488" type="line"/>
      <point x="6" y="304" type="line"/>
    </contour>
  </outline>
</glyph>
<glyph name="slashlongcomb" format="2">
  <unicode hex="0338"/>
  <anchor x="154" y="263" name="_center"/>
  <outline>
    <contour>
      <point x="-41" y="-32" type="line"/>
      <point x="14" y="-32" type="line"/>
      <point x="348" y="558" type="line"/>
      <point x="293" y="558" type="line"/>
    </contour>
  </outline>
</glyph>
<glyph name="mu" format="2">
  <advance width="456"/>
  <unicode hex="03BC"/>
  <outline>
    <contour>
      <point x="0" y="-173" type="line"/>
      <point x="82" y="-173" type="line"/>
      <point x="92" y="-101"/>
      <point x="101" y="-21"/>
      <point x="96" y="44" type="curve"/>
      <point x="78" y="26" type="line"/>
      <point x="94" y="-1"/>
      <point x="124" y="-13"/>
      <point x="156" y="-13" type="curve" smooth="yes"/>
      <point x="211" y="-13"/>
      <point x="275" y="22"/>
      <point x="296" y="77" type="curve"/>
      <point x="298" y="0" type="line"/>
      <point x="360" y="0" type="line"/>
      <point x="434" y="526" type="line"/>
      <point x="352" y="526" type="line"/>
      <point x="311" y="233" type="line" smooth="yes"/>
      <point x="297" y="131"/>
      <point x="253" y="61"/>
      <point x="186" y="61" type="curve" smooth="yes"/>
      <point x="147" y="61"/>
      <point x="120" y="80"/>
      <point x="127" y="135" type="curve" smooth="yes"/>
      <point x="180" y="526" type="line"/>
      <point x="98" y="526" type="line"/>
    </contour>
  </outline>
</glyph>
<glyph name="Germandbls" format="2">
  <advance width="611"/>
  <unicode hex="1E9E"/>
  <outline>
    <contour>
      <point x="28" y="0" type="line"/>
      <point x="113" y="0" type="line"/>
      <point x="173" y="424" type="line" smooth="yes"/>
      <point x="192" y="556"/>
      <point x="257" y="622"/>
      <point x="367" y="622" type="curve" smooth="yes"/>
      <point x="465" y="622"/>
      <point x="501" y="582"/>
      <point x="501" y="521" type="curve" smooth="yes"/>
      <point x="501" y="438"/>
      <point x="447" y="376"/>
      <point x="372" y="376" type="curve" smooth="yes"/>
      <point x="256" y="376" type="line"/>
      <point x="246" y="303" type="line"/>
      <point x="365" y="303" type="line" smooth="yes"/>
      <point x="445" y="303"/>
      <point x="489" y="264"/>
      <point x="489" y="208" type="curve" smooth="yes"/>
      <point x="489" y="128"/>
      <point x="434" y="73"/>
      <point x="352" y="73" type="curve" smooth="yes"/>
      <point x="213" y="73" type="line"/>
      <point x="203" y="0" type="line"/>
      <point x="355" y="0" type="line" smooth="yes"/>
      <point x="481" y="0"/>
      <point x="576" y="93"/>
      <point x="576" y="215" type="curve" smooth="yes"/>
      <point x="576" y="283"/>
      <point x="538" y="329"/>
      <point x="472" y="347" type="curve"/>
      <point x="472" y="351" type="line"/>
      <point x="531" y="373"/>
      <point x="587" y="446"/>
      <point x="587" y="534" type="curve" smooth="yes"/>
      <point x="587" y="634"/>
      <point x="512" y="698"/>
      <point x="379" y="698" type="curve" smooth="yes"/>
      <point x="212" y="698"/>
      <point x="114" y="606"/>
      <point x="88" y="424" type="curve" smooth="yes"/>
    </contour>
  </outline>
</glyph>
<glyph name="emdash" format="2">
  <advance width="820"/>
  <unicode hex="2014"/>
  <outline>
    <contour>
      <point x="-4" y="233" type="line"/>
      <point x="815" y="233" type="line"/>
      <point x="826" y="308" type="line"/>
      <point x="6" y="308" type="line"/>
    </contour>
  </outline>
</glyph>
<glyph name="horizontalbar" format="2">
  <advance width="820"/>
  <unicode hex="2015"/>
  <outline>
    <contour>
      <point x="96" y="233" type="line"/>
      <point x="715" y="233" type="line"/>
      <point x="726" y="308" type="line"/>
      <point x="107" y="308" type="line"/>
    </contour>
  </outline>
</glyph>
<glyph name="underscoredbl" format="2">
  <advance width="500"/>
  <unicode hex="2017"/>
  <outline>
    <contour>
      <point x="-32" y="-124" type="line"/>
      <point x="423" y="-124" type="line"/>
      <point x="431" y="-71" type="line"/>
      <point x="-24" y="-71" type="line"/>
    </contour>
    <contour>
      <point x="-45" y="-217" type="line"/>
      <point x="410" y="-217" type="line"/>
      <point x="418" y="-164" type="line"/>
      <point x="-37" y="-164" type="line"/>
    </contour>
  </outline>
</glyph>
<glyph name="quotereversed" format="2">
  <advance width="182"/>
  <unicode hex="201B"/>
  <outline>
    <contour>
      <point x="132" y="454" type="line"/>
      <point x="187" y="454" type="line"/>
      <point x="172" y="578" type="line"/>
      <point x="205" y="578" type="line"/>
      <point x="220" y="686" type="line"/>
      <point x="120" y="686" type="line"/>
      <point x="106" y="587" type="line"/>
    </contour>
  </outline>
</glyph>
<glyph name="perthousand" format="2">
  <advance width="820"/>
  <unicode hex="2030"/>
  <outline>
    <contour>
      <point x="25" y="0" type="line"/>
      <point x="87" y="0" type="line"/>
      <point x="563" y="686" type="line"/>
      <point x="500" y="686" type="line"/>
    </contour>
    <contour>
      <point x="392" y="-12" type="curve" smooth="yes"/>
      <point x="481" y="-12"/>
      <point x="517" y="72"/>
      <point x="529" y="153" type="curve" smooth="yes"/>
      <point x="533" y="180"/>
      <point x="535" y="207"/>
      <point x="535" y="230" type="curve" smooth="yes"/>
      <point x="535" y="318"/>
      <point x="496" y="349"/>
      <point x="432" y="349" type="curve" smooth="yes"/>
      <point x="367" y="349"/>
      <point x="306" y="303"/>
      <point x="292" y="167" type="curve" smooth="yes"/>
      <point x="290" y="148"/>
      <point x="289" y="128"/>
      <point x="289" y="106" type="curve" smooth="yes"/>
      <point x="289" y="19"/>
      <point x="328" y="-12"/>
    </contour>
    <contour>
      <point x="395" y="47" type="curve" smooth="yes"/>
      <point x="367" y="47"/>
      <point x="357" y="70"/>
      <point x="357" y="107" type="curve" smooth="yes"/>
      <point x="357" y="122"/>
      <point x="358" y="146"/>
      <point x="361" y="172" type="curve" smooth="yes"/>
      <point x="369" y="227"/>
      <point x="387" y="290"/>
      <point x="429" y="290" type="curve" smooth="yes"/>
      <point x="457" y="290"/>
      <point x="466" y="267"/>
      <point x="466" y="230" type="curve" smooth="yes"/>
      <point x="466" y="214"/>
      <point x="465" y="196"/>
      <point x="460" y="161" type="curve" smooth="yes"/>
      <point x="451" y="94"/>
      <point x="435" y="47"/>
    </contour>
    <contour>
      <point x="157" y="337" type="curve" smooth="yes"/>
      <point x="243" y="337"/>
      <point x="279" y="415"/>
      <point x="293" y="493" type="curve" smooth="yes"/>
      <point x="298" y="524"/>
      <point x="300" y="554"/>
      <point x="300" y="579" type="curve" smooth="yes"/>
      <point x="300" y="667"/>
      <point x="261" y="698"/>
      <point x="197" y="698" type="curve" smooth="yes"/>
      <point x="133" y="698"/>
      <point x="73" y="654"/>
      <point x="58" y="524" type="curve" smooth="yes"/>
      <point x="55" y="504"/>
      <point x="54" y="480"/>
      <point x="54" y="455" type="curve" smooth="yes"/>
      <point x="54" y="368"/>
      <point x="93" y="337"/>
    </contour>
    <contour>
      <point x="160" y="396" type="curve" smooth="yes"/>
      <point x="132" y="396"/>
      <point x="122" y="419"/>
      <point x="122" y="456" type="curve" smooth="yes"/>
      <point x="122" y="472"/>
      <point x="123" y="498"/>
      <point x="127" y="525" type="curve" smooth="yes"/>
      <point x="135" y="579"/>
      <point x="153" y="639"/>
      <point x="194" y="639" type="curve" smooth="yes"/>
      <point x="222" y="639"/>
      <point x="231" y="616"/>
      <point x="231" y="579" type="curve" smooth="yes"/>
      <point x="231" y="563"/>
      <point x="230" y="545"/>
      <point x="225" y="510" type="curve" smooth="yes"/>
      <point x="216" y="443"/>
      <point x="200" y="396"/>
    </contour>
    <contour>
      <point x="657" y="-12" type="curve" smooth="yes"/>
      <point x="748" y="-12"/>
      <point x="784" y="77"/>
      <point x="795" y="160" type="curve" smooth="yes"/>
      <point x="799" y="185"/>
      <point x="800" y="209"/>
      <point x="800" y="230" type="curve" smooth="yes"/>
      <point x="800" y="318"/>
      <point x="761" y="349"/>
      <point x="697" y="349" type="curve" smooth="yes"/>
      <point x="634" y="349"/>
      <point x="575" y="307"/>
      <point x="559" y="182" type="curve" smooth="yes"/>
      <point x="556" y="159"/>
      <point x="554" y="134"/>
      <point x="554" y="106" type="curve" smooth="yes"/>
      <point x="554" y="19"/>
      <point x="593" y="-12"/>
    </contour>
    <contour>
      <point x="660" y="47" type="curve" smooth="yes"/>
      <point x="632" y="47"/>
      <point x="622" y="70"/>
      <point x="622" y="107" type="curve" smooth="yes"/>
      <point x="622" y="123"/>
      <point x="623" y="150"/>
      <point x="627" y="178" type="curve" smooth="yes"/>
      <point x="635" y="232"/>
      <point x="654" y="290"/>
      <point x="694" y="290" type="curve" smooth="yes"/>
      <point x="722" y="290"/>
      <point x="731" y="267"/>
      <point x="731" y="230" type="curve" smooth="yes"/>
      <point x="731" y="214"/>
      <point x="730" y="196"/>
      <point x="725" y="161" type="curve" smooth="yes"/>
      <point x="716" y="94"/>
      <point x="700" y="47"/>
    </contour>
  </outline>
</glyph>
<glyph name="fraction" format="2">
  <advance width="137"/>
  <unicode hex="2044"/>
  <outline>
    <contour>
      <point x="-209" y="-12" type="line"/>
      <point x="-146" y="-12" type="line"/>
      <point x="367" y="698" type="line"/>
      <point x="305" y="698" type="line"/>
    </contour>
  </outline>
</glyph>
<glyph name="commercialMinusSign" format="2">
  <advance width="600"/>
  <unicode hex="2052"/>
  <outline>
    <contour>
      <point x="11" y="-12" type="line"/>
      <point x="75" y="-12" type="line"/>
      <point x="589" y="698" type="line"/>
      <point x="526" y="698" type="line"/>
    </contour>
    <contour>
      <point x="104" y="575" type="line"/>
      <point x="205" y="575" type="line"/>
      <point x="220" y="686" type="line"/>
      <point x="119" y="686" type="line"/>
    </contour>
    <contour>
      <point x="381" y="0" type="line"/>
      <point x="482" y="0" type="line"/>
      <point x="497" y="111" type="line"/>
      <point x="396" y="111" type="line"/>
    </contour>
  </outline>
</glyph>
<glyph name="zerosuperior" format="2">
  <advance width="273"/>
  <unicode hex="2070"/>
  <outline>
    <contour>
      <point x="168" y="428" type="curve" smooth="yes"/>
      <point x="257" y="428"/>
      <point x="300" y="526"/>
      <point x="300" y="686" type="curve" smooth="yes"/>
      <point x="300" y="771"/>
      <point x="257" y="798"/>
      <point x="200" y="798" type="curve" smooth="yes"/>
      <point x="111" y="798"/>
      <point x="73" y="710"/>
      <point x="73" y="539" type="curve" smooth="yes"/>
      <point x="73" y="454"/>
      <point x="116" y="428"/>
    </contour>
    <contour>
      <point x="173" y="489" type="curve" smooth="yes"/>
      <point x="140" y="489"/>
      <point x="135" y="525"/>
      <point x="142" y="591" type="curve" smooth="yes"/>
      <point x="147" y="637" type="line" smooth="yes"/>
      <point x="154" y="699"/>
      <point x="164" y="737"/>
      <point x="201" y="737" type="curve" smooth="yes"/>
      <point x="241" y="737"/>
      <point x="236" y="687"/>
      <point x="231" y="645" type="curve" smooth="yes"/>
      <point x="226" y="599" type="line" smooth="yes"/>
      <point x="218" y="521"/>
      <point x="205" y="489"/>
    </contour>
  </outline>
</glyph>
<glyph name="foursuperior" format="2">
  <advance width="273"/>
  <unicode hex="2074"/>
  <outline>
    <contour>
      <point x="186" y="434" type="line"/>
      <point x="250" y="434" type="line"/>
      <point x="261" y="513" type="line"/>
      <point x="295" y="513" type="line"/>
      <point x="303" y="573" type="line"/>
      <point x="269" y="573" type="line"/>
      <point x="293" y="740" type="line"/>
      <point x="259" y="740" type="line"/>
      <point x="247" y="708"/>
      <point x="229" y="660"/>
      <point x="214" y="633" type="curve"/>
      <point x="205" y="573" type="line"/>
      <point x="136" y="573" type="line"/>
      <point x="167" y="614"/>
      <point x="225" y="711"/>
      <point x="257" y="799" type="curve"/>
      <point x="186" y="799" type="line"/>
      <point x="156" y="707"/>
      <point x="118" y="628"/>
      <point x="67" y="562" type="curve"/>
      <point x="60" y="513" type="line"/>
      <point x="197" y="513" type="line"/>
    </contour>
  </outline>
</glyph>
<glyph name="fivesuperior" format="2">
  <advance width="273"/>
  <unicode hex="2075"/>
  <outline>
    <contour>
      <point x="171" y="430" type="curve" smooth="yes"/>
      <point x="238" y="430"/>
      <point x="290" y="495"/>
      <point x="290" y="579" type="curve" smooth="yes"/>
      <point x="290" y="636"/>
      <point x="259" y="673"/>
      <point x="209" y="673" type="curve" smooth="yes"/>
      <point x="194" y="673"/>
      <point x="173" y="667"/>
      <point x="159" y="657" type="curve"/>
      <point x="175" y="730" type="line"/>
      <point x="293" y="730" type="line"/>
      <point x="301" y="786" type="line"/>
      <point x="128" y="786" type="line"/>
      <point x="88" y="606" type="line"/>
      <point x="142" y="597" type="line"/>
      <point x="153" y="610"/>
      <point x="172" y="619"/>
      <point x="183" y="619" type="curve" smooth="yes"/>
      <point x="209" y="619"/>
      <point x="226" y="599"/>
      <point x="226" y="568" type="curve" smooth="yes"/>
      <point x="226" y="522"/>
      <point x="199" y="483"/>
      <point x="170" y="483" type="curve" smooth="yes"/>
      <point x="143" y="483"/>
      <point x="126" y="510"/>
      <point x="132" y="550" type="curve"/>
      <point x="70" y="550" type="line"/>
      <point x="59" y="473"/>
      <point x="93" y="430"/>
    </contour>
  </outline>
</glyph>
<glyph name="sixsuperior" format="2">
  <advance width="273"/>
  <unicode hex="2076"/>
  <outline>
    <contour>
      <point x="175" y="428" type="curve" smooth="yes"/>
      <point x="242" y="428"/>
      <point x="290" y="485"/>
      <point x="290" y="569" type="curve" smooth="yes"/>
      <point x="290" y="620"/>
      <point x="264" y="661"/>
      <point x="210" y="661" type="curve" smooth="yes"/>
      <point x="183" y="661"/>
      <point x="161" y="649"/>
      <point x="147" y="632" type="curve"/>
      <point x="157" y="700"/>
      <point x="177" y="742"/>
      <point x="211" y="742" type="curve" smooth="yes"/>
      <point x="235" y="742"/>
      <point x="248" y="724"/>
      <point x="241" y="682" type="curve"/>
      <point x="299" y="682" type="line"/>
      <point x="310" y="759"/>
      <point x="278" y="798"/>
      <point x="215" y="798" type="curve" smooth="yes"/>
      <point x="124" y="798"/>
      <point x="78" y="702"/>
      <point x="78" y="545" type="curve" smooth="yes"/>
      <point x="78" y="467"/>
      <point x="114" y="428"/>
    </contour>
    <contour>
      <point x="177" y="486" type="curve" smooth="yes"/>
      <point x="153" y="486"/>
      <point x="138" y="506"/>
      <point x="138" y="535" type="curve" smooth="yes"/>
      <point x="138" y="578"/>
      <point x="158" y="607"/>
      <point x="190" y="607" type="curve" smooth="yes"/>
      <point x="217" y="607"/>
      <point x="230" y="588"/>
      <point x="230" y="562" type="curve" smooth="yes"/>
      <point x="230" y="516"/>
      <point x="209" y="486"/>
    </contour>
  </outline>
</glyph>
<glyph name="sevensuperior" format="2">
  <advance width="273"/>
  <unicode hex="2077"/>
  <outline>
    <contour>
      <point x="103" y="428" type="curve"/>
      <point x="176" y="428" type="line"/>
      <point x="177" y="439"/>
      <point x="178" y="448"/>
      <point x="179" y="456" type="curve" smooth="yes"/>
      <point x="193" y="568"/>
      <point x="252" y="687"/>
      <point x="310" y="758" type="curve"/>
      <point x="314" y="786" type="line"/>
      <point x="110" y="786" type="line"/>
      <point x="102" y="730" type="line"/>
      <point x="231" y="730" type="line"/>
      <point x="173" y="659"/>
      <point x="119" y="546"/>
    </contour>
  </outline>
</glyph>
<glyph name="eightsuperior" format="2">
  <advance width="273"/>
  <unicode hex="2078"/>
  <outline>
    <contour>
      <point x="166" y="428" type="curve" smooth="yes"/>
      <point x="236" y="428"/>
      <point x="278" y="473"/>
      <point x="278" y="545" type="curve" smooth="yes"/>
      <point x="278" y="579"/>
      <point x="266" y="605"/>
      <point x="240" y="620" type="curve"/>
      <point x="272" y="640"/>
      <point x="291" y="672"/>
      <point x="291" y="713" type="curve" smooth="yes"/>
      <point x="291" y="759"/>
      <point x="260" y="798"/>
      <point x="206" y="798" type="curve" smooth="yes"/>
      <point x="142" y="798"/>
      <point x="100" y="751"/>
      <point x="100" y="688" type="curve" smooth="yes"/>
      <point x="100" y="659"/>
      <point x="112" y="634"/>
      <point x="131" y="620" type="curve"/>
      <point x="93" y="600"/>
      <point x="71" y="563"/>
      <point x="71" y="514" type="curve" smooth="yes"/>
      <point x="71" y="461"/>
      <point x="108" y="428"/>
    </contour>
    <contour>
      <point x="174" y="485" type="curve" smooth="yes"/>
      <point x="151" y="485"/>
      <point x="135" y="501"/>
      <point x="135" y="527" type="curve" smooth="yes"/>
      <point x="135" y="573"/>
      <point x="158" y="595"/>
      <point x="181" y="595" type="curve" smooth="yes"/>
      <point x="200" y="595"/>
      <point x="218" y="578"/>
      <point x="218" y="547" type="curve" smooth="yes"/>
      <point x="218" y="509"/>
      <point x="204" y="485"/>
    </contour>
    <contour>
      <point x="193" y="646" type="curve" smooth="yes"/>
      <point x="172" y="646"/>
      <point x="161" y="667"/>
      <point x="161" y="691" type="curve" smooth="yes"/>
      <point x="161" y="718"/>
      <point x="175" y="746"/>
      <point x="201" y="746" type="curve" smooth="yes"/>
      <point x="222" y="746"/>
      <point x="232" y="725"/>
      <point x="232" y="703" type="curve" smooth="yes"/>
      <point x="232" y="676"/>
      <point x="218" y="646"/>
    </contour>
  </outline>
</glyph>
<glyph name="ninesuperior" format="2">
  <advance width="273"/>
  <unicode hex="2079"/>
  <outline>
    <contour>
      <point x="165" y="428" type="curve" smooth="yes"/>
      <point x="252" y="428"/>
      <point x="294" y="525"/>
      <point x="294" y="680" type="curve" smooth="yes"/>
      <point x="294" y="766"/>
      <point x="258" y="798"/>
      <point x="201" y="798" type="curve" smooth="yes"/>
      <point x="136" y="798"/>
      <point x="89" y="742"/>
      <point x="89" y="663" type="curve" smooth="yes"/>
      <point x="89" y="610"/>
      <point x="116" y="568"/>
      <point x="172" y="568" type="curve" smooth="yes"/>
      <point x="192" y="568"/>
      <point x="209" y="576"/>
      <point x="226" y="590" type="curve"/>
      <point x="224" y="545"/>
      <point x="204" y="483"/>
      <point x="172" y="483" type="curve" smooth="yes"/>
      <point x="147" y="483"/>
      <point x="138" y="505"/>
      <point x="143" y="544" type="curve"/>
      <point x="82" y="544" type="line"/>
      <point x="74" y="478"/>
      <point x="97" y="428"/>
    </contour>
    <contour>
      <point x="186" y="622" type="curve" smooth="yes"/>
      <point x="163" y="622"/>
      <point x="151" y="641"/>
      <point x="151" y="668" type="curve" smooth="yes"/>
      <point x="151" y="714"/>
      <point x="170" y="745"/>
      <point x="199" y="745" type="curve" smooth="yes"/>
      <point x="222" y="745"/>
      <point x="234" y="724"/>
      <point x="234" y="697" type="curve" smooth="yes"/>
      <point x="234" y="652"/>
      <point x="215" y="622"/>
    </contour>
  </outline>
</glyph>
<glyph name="colonsign" format="2">
  <advance width="592"/>
  <unicode hex="20A1"/>
  <outline>
    <contour>
      <point x="275" y="-12" type="curve" smooth="yes"/>
      <point x="427" y="-12"/>
      <point x="525" y="80"/>
      <point x="548" y="246" type="curve"/>
      <point x="466" y="246" type="line"/>
      <point x="450" y="129"/>
      <point x="385" y="64"/>
      <point x="286" y="64" type="curve" smooth="yes"/>
      <point x="164" y="64"/>
      <point x="116" y="148"/>
      <point x="140" y="318" type="curve" smooth="yes"/>
      <point x="147" y="368" type="line" smooth="yes"/>
      <point x="170" y="531"/>
      <point x="248" y="622"/>
      <point x="364" y="622" type="curve" smooth="yes"/>
      <point x="468" y="622"/>
      <point x="511" y="561"/>
      <point x="494" y="438" type="curve"/>
      <point x="575" y="438" type="line"/>
      <point x="600" y="613"/>
      <point x="513" y="698"/>
      <point x="375" y="698" type="curve" smooth="yes"/>
      <point x="166" y="698"/>
      <point x="49" y="534"/>
      <point x="49" y="241" type="curve" smooth="yes"/>
      <point x="49" y="72"/>
      <point x="125" y="-12"/>
    </contour>
    <contour>
      <point x="84" y="-109" type="line"/>
      <point x="134" y="-109" type="line"/>
      <point x="436" y="783" type="line"/>
      <point x="387" y="783" type="line"/>
    </contour>
    <contour>
      <point x="196" y="-109" type="line"/>
      <point x="246" y="-109" type="line"/>
      <point x="548" y="783" type="line"/>
      <point x="499" y="783" type="line"/>
    </contour>
  </outline>
</glyph>
<glyph name="franc" format="2">
  <advance width="504"/>
  <unicode hex="20A3"/>
  <outline>
    <contour>
      <point x="34" y="0" type="line"/>
      <point x="122" y="0" type="line"/>
      <point x="165" y="304" type="line"/>
      <point x="437" y="304" type="line"/>
      <point x="448" y="384" type="line"/>
      <point x="176" y="384" type="line"/>
      <point x="207" y="606" type="line"/>
      <point x="515" y="606" type="line"/>
      <point x="527" y="686" type="line"/>
      <point x="131" y="686" type="line"/>
    </contour>
    <contour>
      <point x="-7" y="121" type="line"/>
      <point x="329" y="121" type="line"/>
      <point x="339" y="186" type="line"/>
      <point x="3" y="186" type="line"/>
    </contour>
  </outline>
</glyph>
<glyph name="naira" format="2">
  <advance width="592"/>
  <unicode hex="20A6"/>
  <outline>
    <contour>
      <point x="48" y="0" type="line"/>
      <point x="125" y="0" type="line"/>
      <point x="186" y="434" type="line" smooth="yes"/>
      <point x="190" y="462"/>
      <point x="195" y="525"/>
      <point x="195" y="525" type="curve"/>
      <point x="201" y="526" type="line"/>
      <point x="201" y="526"/>
      <point x="220" y="464"/>
      <point x="232" y="434" type="curve" smooth="yes"/>
      <point x="401" y="0" type="line"/>
      <point x="470" y="0" type="line"/>
      <point x="566" y="686" type="line"/>
      <point x="489" y="686" type="line"/>
      <point x="429" y="258" type="line" smooth="yes"/>
      <point x="426" y="236"/>
      <point x="419" y="167"/>
      <point x="419" y="167" type="curve"/>
      <point x="413" y="166" type="line"/>
      <point x="413" y="166"/>
      <point x="394" y="232"/>
      <point x="384" y="258" type="curve" smooth="yes"/>
      <point x="216" y="686" type="line"/>
      <point x="144" y="686" type="line"/>
    </contour>
    <contour>
      <point x="-3" y="243" type="line"/>
      <point x="126" y="243" type="line"/>
      <point x="135" y="308" type="line"/>
      <point x="6" y="308" type="line"/>
    </contour>
    <contour>
      <point x="16" y="378" type="line"/>
      <point x="145" y="378" type="line"/>
      <point x="154" y="443" type="line"/>
      <point x="25" y="443" type="line"/>
    </contour>
    <contour>
      <point x="460" y="243" type="line"/>
      <point x="589" y="243" type="line"/>
      <point x="598" y="308" type="line"/>
      <point x="469" y="308" type="line"/>
    </contour>
    <contour>
      <point x="479" y="378" type="line"/>
      <point x="608" y="378" type="line"/>
      <point x="617" y="443" type="line"/>
      <point x="488" y="443" type="line"/>
    </contour>
  </outline>
</glyph>
<glyph name="won" format="2">
  <advance width="694"/>
  <unicode hex="20A9"/>
  <outline>
    <contour>
      <point x="97" y="0" type="line"/>
      <point x="213" y="0" type="line"/>
      <point x="354" y="465" type="line" smooth="yes"/>
      <point x="368" y="511"/>
      <point x="392" y="603"/>
      <point x="392" y="603" type="curve"/>
      <point x="396" y="603" type="line"/>
      <point x="396" y="603"/>
      <point x="395" y="511"/>
      <point x="396" y="465" type="curve" smooth="yes"/>
      <point x="409" y="0" type="line"/>
      <point x="525" y="0" type="line"/>
      <point x="744" y="686" type="line"/>
      <point x="662" y="686" type="line"/>
      <point x="521" y="212" type="line" smooth="yes"/>
      <point x="506" y="163"/>
      <point x="488" y="80"/>
      <point x="488" y="80" type="curve"/>
      <point x="481" y="80" type="line"/>
      <point x="481" y="80"/>
      <point x="479" y="158"/>
      <point x="478" y="212" type="curve" smooth="yes"/>
      <point x="468" y="686" type="line"/>
      <point x="347" y="686" type="line"/>
      <point x="207" y="212" type="line" smooth="yes"/>
      <point x="188" y="147"/>
      <point x="173" y="80"/>
      <point x="173" y="80" type="curve"/>
      <point x="166" y="80" type="line"/>
      <point x="166" y="80"/>
      <point x="169" y="169"/>
      <point x="168" y="212" type="curve" smooth="yes"/>
      <point x="157" y="686" type="line"/>
      <point x="70" y="686" type="line"/>
    </contour>
    <contour>
      <point x="6" y="304" type="line"/>
      <point x="700" y="304" type="line"/>
      <point x="710" y="376" type="line"/>
      <point x="16" y="376" type="line"/>
    </contour>
  </outline>
</glyph>
<glyph name="dong" format="2">
  <advance width="456"/>
  <unicode hex="20AB"/>
  <outline>
    <contour>
      <point x="174" y="58" type="curve" smooth="yes"/>
      <point x="221" y="58"/>
      <point x="267" y="83"/>
      <point x="299" y="131" type="curve"/>
      <point x="304" y="131" type="line"/>
      <point x="306" y="70" type="line"/>
      <point x="365" y="70" type="line"/>
      <point x="457" y="723" type="line"/>
      <point x="378" y="723" type="line"/>
      <point x="339" y="446" type="line"/>
      <point x="334" y="446" type="line"/>
      <point x="322" y="485"/>
      <point x="281" y="508"/>
      <point x="231" y="508" type="curve" smooth="yes"/>
      <point x="114" y="508"/>
      <point x="38" y="397"/>
      <point x="38" y="226" type="curve" smooth="yes"/>
      <point x="38" y="119"/>
      <point x="88" y="58"/>
    </contour>
    <contour>
      <point x="201" y="126" type="curve" smooth="yes"/>
      <point x="151" y="126"/>
      <point x="125" y="165"/>
      <point x="125" y="235" type="curve" smooth="yes"/>
      <point x="125" y="359"/>
      <point x="172" y="440"/>
      <point x="244" y="440" type="curve" smooth="yes"/>
      <point x="292" y="440"/>
      <point x="318" y="401"/>
      <point x="318" y="330" type="curve" smooth="yes"/>
      <point x="318" y="206"/>
      <point x="272" y="126"/>
    </contour>
    <contour>
      <point x="-5" y="-53" type="line"/>
      <point x="348" y="-53" type="line"/>
      <point x="355" y="0" type="line"/>
      <point x="2" y="0" type="line"/>
    </contour>
    <contour>
      <point x="192" y="567" type="line"/>
      <point x="498" y="567" type="line"/>
      <point x="506" y="620" type="line"/>
      <point x="200" y="620" type="line"/>
    </contour>
  </outline>
</glyph>
<glyph name="kip" format="2">
  <advance width="600"/>
  <unicode hex="20AD"/>
  <outline>
    <contour>
      <point x="36" y="0" type="line"/>
      <point x="121" y="0" type="line"/>
      <point x="164" y="304" type="line"/>
      <point x="213" y="304" type="line"/>
      <point x="400" y="0" type="line"/>
      <point x="492" y="0" type="line"/>
      <point x="304" y="304" type="line"/>
      <point x="511" y="304" type="line"/>
      <point x="520" y="369" type="line"/>
      <point x="313" y="369" type="line"/>
      <point x="589" y="686" type="line"/>
      <point x="494" y="686" type="line"/>
      <point x="221" y="369" type="line"/>
      <point x="173" y="369" type="line"/>
      <point x="217" y="686" type="line"/>
      <point x="132" y="686" type="line"/>
      <point x="88" y="369" type="line"/>
      <point x="15" y="369" type="line"/>
      <point x="6" y="304" type="line"/>
      <point x="79" y="304" type="line"/>
    </contour>
  </outline>
</glyph>
<glyph name="peso" format="2">
  <advance width="547"/>
  <unicode hex="20B1"/>
  <outline>
    <contour>
      <point x="33" y="0" type="line"/>
      <point x="116" y="0" type="line"/>
      <point x="153" y="263" type="line"/>
      <point x="275" y="263" type="line" smooth="yes"/>
      <point x="434" y="263"/>
      <point x="523" y="354"/>
      <point x="523" y="516" type="curve" smooth="yes"/>
      <point x="523" y="619"/>
      <point x="460" y="686"/>
      <point x="334" y="686" type="curve" smooth="yes"/>
      <point x="129" y="686" type="line"/>
    </contour>
    <contour>
      <point x="19" y="399" type="line"/>
      <point x="129" y="399" type="line"/>
      <point x="136" y="446" type="line"/>
      <point x="26" y="446" type="line"/>
    </contour>
    <contour>
      <point x="33" y="499" type="line"/>
      <point x="144" y="499" type="line"/>
      <point x="151" y="546" type="line"/>
      <point x="40" y="546" type="line"/>
    </contour>
    <contour>
      <point x="163" y="337" type="line"/>
      <point x="202" y="612" type="line"/>
      <point x="321" y="612" type="line" smooth="yes"/>
      <point x="400" y="612"/>
      <point x="437" y="577"/>
      <point x="437" y="504" type="curve" smooth="yes"/>
      <point x="437" y="397"/>
      <point x="382" y="337"/>
      <point x="282" y="337" type="curve" smooth="yes"/>
    </contour>
    <contour>
      <point x="457" y="399" type="line"/>
      <point x="566" y="399" type="line"/>
      <point x="573" y="446" type="line"/>
      <point x="461" y="446" type="line"/>
    </contour>
    <contour>
      <point x="465" y="499" type="line"/>
      <point x="580" y="499" type="line"/>
      <point x="587" y="546" type="line"/>
      <point x="469" y="546" type="line"/>
    </contour>
  </outline>
</glyph>
<glyph name="guarani" format="2">
  <advance width="638"/>
  <unicode hex="20B2"/>
  <outline>
    <contour>
      <point x="248" y="-109" type="line"/>
      <point x="297" y="-109" type="line"/>
      <point x="422" y="783" type="line"/>
      <point x="373" y="783" type="line"/>
    </contour>
    <contour>
      <point x="281" y="-12" type="curve" smooth="yes"/>
      <point x="363" y="-12"/>
      <point x="434" y="21"/>
      <point x="487" y="100" type="curve"/>
      <point x="472" y="111" type="line"/>
      <point x="483" y="0" type="line"/>
      <point x="536" y="0" type="line"/>
      <point x="586" y="357" type="line"/>
      <point x="318" y="357" type="line"/>
      <point x="308" y="285" type="line"/>
      <point x="523" y="285" type="line"/>
      <point x="496" y="317" type="line"/>
      <point x="488" y="264" type="line" smooth="yes"/>
      <point x="468" y="131"/>
      <point x="409" y="64"/>
      <point x="291" y="64" type="curve" smooth="yes"/>
      <point x="175" y="64"/>
      <point x="123" y="157"/>
      <point x="146" y="318" type="curve" smooth="yes"/>
      <point x="153" y="368" type="line" smooth="yes"/>
      <point x="176" y="531"/>
      <point x="255" y="622"/>
      <point x="375" y="622" type="curve" smooth="yes"/>
      <point x="482" y="622"/>
      <point x="533" y="569"/>
      <point x="517" y="452" type="curve"/>
      <point x="600" y="452" type="line"/>
      <point x="623" y="618"/>
      <point x="528" y="698"/>
      <point x="385" y="698" type="curve" smooth="yes"/>
      <point x="172" y="698"/>
      <point x="53" y="528"/>
      <point x="53" y="245" type="curve" smooth="yes"/>
      <point x="53" y="74"/>
      <point x="141" y="-12"/>
    </contour>
  </outline>
</glyph>
<glyph name="rupeeIndian" format="2">
  <advance width="560"/>
  <unicode hex="20B9"/>
  <outline>
    <contour>
      <point x="292" y="0" type="line"/>
      <point x="391" y="0" type="line"/>
      <point x="166" y="303" type="line"/>
      <point x="219" y="303" type="line" smooth="yes"/>
      <point x="336" y="303"/>
      <point x="417" y="360"/>
      <point x="446" y="462" type="curve"/>
      <point x="527" y="462" type="line"/>
      <point x="536" y="527" type="line"/>
      <point x="455" y="527" type="line"/>
      <point x="454" y="568"/>
      <point x="436" y="602"/>
      <point x="403" y="630" type="curve"/>
      <point x="382" y="621" type="line"/>
      <point x="550" y="621" type="line"/>
      <point x="559" y="686" type="line"/>
      <point x="110" y="686" type="line"/>
      <point x="100" y="616" type="line"/>
      <point x="263" y="616" type="line" smooth="yes"/>
      <point x="330" y="616"/>
      <point x="367" y="583"/>
      <point x="370" y="527" type="curve"/>
      <point x="87" y="527" type="line"/>
      <point x="78" y="462" type="line"/>
      <point x="360" y="462" type="line"/>
      <point x="340" y="405"/>
      <point x="293" y="373"/>
      <point x="229" y="373" type="curve" smooth="yes"/>
      <point x="66" y="373" type="line"/>
      <point x="58" y="318" type="line"/>
    </contour>
  </outline>
</glyph>
<glyph name="liraTurkish" format="2">
  <advance width="456"/>
  <unicode hex="20BA"/>
  <outline>
    <contour>
      <point x="34" y="0" type="line"/>
      <point x="117" y="0" type="line"/>
      <point x="331" y="0"/>
      <point x="411" y="64"/>
      <point x="437" y="254" type="curve"/>
      <point x="357" y="254" type="line"/>
      <point x="339" y="119"/>
      <point x="282" y="76"/>
      <point x="127" y="76" type="curve"/>
      <point x="213" y="686" type="line"/>
      <point x="130" y="686" type="line"/>
    </contour>
    <contour>
      <point x="11" y="335" type="line"/>
      <point x="389" y="475" type="line"/>
      <point x="398" y="542" type="line"/>
      <point x="20" y="402" type="line"/>
    </contour>
    <contour>
      <point x="-9" y="193" type="line"/>
      <point x="369" y="333" type="line"/>
      <point x="378" y="400" type="line"/>
      <point x="0" y="260" type="line"/>
    </contour>
  </outline>
</glyph>
<glyph name="manat" format="2">
  <advance width="600"/>
  <unicode hex="20BC"/>
  <outline>
    <contour>
      <point x="19" y="0" type="line"/>
      <point x="102" y="0" type="line"/>
      <point x="162" y="427" type="line" smooth="yes"/>
      <point x="181" y="559"/>
      <point x="242" y="622"/>
      <point x="350" y="622" type="curve" smooth="yes"/>
      <point x="462" y="622"/>
      <point x="503" y="552"/>
      <point x="485" y="427" type="curve" smooth="yes"/>
      <point x="425" y="0" type="line"/>
      <point x="508" y="0" type="line"/>
      <point x="567" y="422" type="line" smooth="yes"/>
      <point x="592" y="599"/>
      <point x="511" y="698"/>
      <point x="361" y="698" type="curve" smooth="yes"/>
      <point x="196" y="698"/>
      <point x="105" y="609"/>
      <point x="78" y="422" type="curve" smooth="yes"/>
    </contour>
    <contour>
      <point x="255" y="110" type="line"/>
      <point x="305" y="110" type="line"/>
      <point x="400" y="783" type="line"/>
      <point x="350" y="783" type="line"/>
    </contour>
  </outline>
</glyph>
<glyph name="ruble" format="2">
  <advance width="547"/>
  <unicode hex="20BD"/>
  <outline>
    <contour>
      <point x="-18" y="126" type="line"/>
      <point x="54" y="126" type="line"/>
      <point x="36" y="0" type="line"/>
      <point x="120" y="0" type="line"/>
      <point x="138" y="126" type="line"/>
      <point x="310" y="126" type="line"/>
      <point x="319" y="191" type="line"/>
      <point x="147" y="191" type="line"/>
      <point x="161" y="288" type="line"/>
      <point x="320" y="288" type="line" smooth="yes"/>
      <point x="458" y="288"/>
      <point x="555" y="386"/>
      <point x="555" y="524" type="curve" smooth="yes"/>
      <point x="555" y="622"/>
      <point x="495" y="686"/>
      <point x="376" y="686" type="curve" smooth="yes"/>
      <point x="133" y="686" type="line"/>
      <point x="87" y="358" type="line"/>
      <point x="15" y="358" type="line"/>
      <point x="5" y="288" type="line"/>
      <point x="77" y="288" type="line"/>
      <point x="63" y="191" type="line"/>
      <point x="-9" y="191" type="line"/>
    </contour>
    <contour>
      <point x="171" y="358" type="line"/>
      <point x="206" y="611" type="line"/>
      <point x="362" y="611" type="line" smooth="yes"/>
      <point x="431" y="611"/>
      <point x="467" y="571"/>
      <point x="467" y="510" type="curve" smooth="yes"/>
      <point x="467" y="424"/>
      <point x="406" y="358"/>
      <point x="327" y="358" type="curve" smooth="yes"/>
    </contour>
  </outline>
</glyph>
<glyph name="published" format="2">
  <advance width="604"/>
  <unicode hex="2117"/>
  <outline>
    <contour>
      <point x="302" y="-12" type="curve" smooth="yes"/>
      <point x="477" y="-12"/>
      <point x="583" y="127"/>
      <point x="583" y="343" type="curve" smooth="yes"/>
      <point x="583" y="559"/>
      <point x="477" y="698"/>
      <point x="302" y="698" type="curve" smooth="yes"/>
      <point x="127" y="698"/>
      <point x="21" y="559"/>
      <point x="21" y="343" type="curve" smooth="yes"/>
      <point x="21" y="127"/>
      <point x="127" y="-12"/>
    </contour>
    <contour>
      <point x="302" y="35" type="curve" smooth="yes"/>
      <point x="156" y="35"/>
      <point x="67" y="156"/>
      <point x="67" y="343" type="curve" smooth="yes"/>
      <point x="67" y="530"/>
      <point x="156" y="651"/>
      <point x="302" y="651" type="curve" smooth="yes"/>
      <point x="448" y="651"/>
      <point x="537" y="530"/>
      <point x="537" y="343" type="curve" smooth="yes"/>
      <point x="537" y="156"/>
      <point x="448" y="35"/>
    </contour>
    <contour>
      <point x="187" y="148" type="line"/>
      <point x="244" y="148" type="line"/>
      <point x="244" y="310" type="line"/>
      <point x="312" y="310" type="line" smooth="yes"/>
      <point x="404" y="310"/>
      <point x="451" y="352"/>
      <point x="451" y="435" type="curve" smooth="yes"/>
      <point x="451" y="505"/>
      <point x="406" y="550"/>
      <point x="338" y="550" type="curve" smooth="yes"/>
      <point x="187" y="550" type="line"/>
    </contour>
    <contour>
      <point x="244" y="363" type="line"/>
      <point x="244" y="497" type="line"/>
      <point x="320" y="497" type="line" smooth="yes"/>
      <point x="370" y="497"/>
      <point x="392" y="472"/>
      <point x="392" y="428" type="curve" smooth="yes"/>
      <point x="392" y="385"/>
      <point x="368" y="363"/>
      <point x="320" y="363" type="curve" smooth="yes"/>
    </contour>
  </outline>
</glyph>
<glyph name="Omega" format="2">
  <advance width="768"/>
  <unicode hex="2126"/>
  <outline>
    <contour>
      <point x="77" y="0" type="line"/>
      <point x="314" y="0" type="line"/>
      <point x="323" y="61" type="line"/>
      <point x="250" y="78"/>
      <point x="207" y="138"/>
      <point x="207" y="241" type="curve" smooth="yes"/>
      <point x="207" y="279"/>
      <point x="210" y="318"/>
      <point x="216" y="356" type="curve" smooth="yes"/>
      <point x="237" y="492"/>
      <point x="301" y="617"/>
      <point x="434" y="617" type="curve" smooth="yes"/>
      <point x="527" y="617"/>
      <point x="582" y="558"/>
      <point x="582" y="438" type="curve" smooth="yes"/>
      <point x="582" y="414"/>
      <point x="579" y="381"/>
      <point x="574" y="346" type="curve" smooth="yes"/>
      <point x="554" y="223"/>
      <point x="498" y="61"/>
      <point x="388" y="61" type="curve"/>
      <point x="379" y="0" type="line"/>
      <point x="617" y="0" type="line"/>
      <point x="629" y="84" type="line"/>
      <point x="604" y="84" type="line" smooth="yes"/>
      <point x="579" y="84"/>
      <point x="558" y="81"/>
      <point x="536" y="80" type="curve"/>
      <point x="637" y="175"/>
      <point x="673" y="308"/>
      <point x="673" y="437" type="curve" smooth="yes"/>
      <point x="673" y="612"/>
      <point x="586" y="698"/>
      <point x="436" y="698" type="curve" smooth="yes"/>
      <point x="210" y="698"/>
      <point x="120" y="454"/>
      <point x="120" y="267" type="curve" smooth="yes"/>
      <point x="120" y="187"/>
      <point x="142" y="125"/>
      <point x="181" y="80" type="curve"/>
      <point x="153" y="81"/>
      <point x="130" y="84"/>
      <point x="114" y="84" type="curve" smooth="yes"/>
      <point x="89" y="84" type="line"/>
    </contour>
  </outline>
</glyph>
<glyph name="emptyset" format="2">
  <advance width="456"/>
  <unicode hex="2205"/>
  <outline>
    <contour>
      <point x="240" y="102" type="curve" smooth="yes"/>
      <point x="365" y="102"/>
      <point x="448" y="202"/>
      <point x="448" y="351" type="curve" smooth="yes"/>
      <point x="448" y="499"/>
      <point x="364" y="598"/>
      <point x="239" y="598" type="curve" smooth="yes"/>
      <point x="115" y="598"/>
      <point x="33" y="499"/>
      <point x="33" y="351" type="curve" smooth="yes"/>
      <point x="33" y="202"/>
      <point x="116" y="102"/>
    </contour>
    <contour>
      <point x="240" y="178" type="curve" smooth="yes"/>
      <point x="162" y="178"/>
      <point x="111" y="247"/>
      <point x="112" y="351" type="curve" smooth="yes"/>
      <point x="113" y="454"/>
      <point x="165" y="522"/>
      <point x="240" y="522" type="curve" smooth="yes"/>
      <point x="319" y="522"/>
      <point x="371" y="453"/>
      <point x="370" y="350" type="curve" smooth="yes"/>
      <point x="369" y="247"/>
      <point x="316" y="178"/>
    </contour>
    <contour>
      <point x="69" y="99" type="line"/>
      <point x="460" y="562" type="line"/>
      <point x="413" y="603" type="line"/>
      <point x="22" y="140" type="line"/>
    </contour>
  </outline>
</glyph>
<glyph name="summation" format="2">
  <advance width="713"/>
  <unicode hex="2211"/>
  <outline>
    <contour>
      <point x="27" y="-128" type="line"/>
      <point x="602" y="-128" type="line"/>
      <point x="614" y="-40" type="line"/>
      <point x="157" y="-40" type="line"/>
      <point x="158" y="-36" type="line"/>
      <point x="483" y="310" type="line"/>
      <point x="264" y="641" type="line"/>
      <point x="264" y="645" type="line"/>
      <point x="693" y="645" type="line"/>
      <point x="704" y="723" type="line"/>
      <point x="155" y="723" type="line"/>
      <point x="146" y="656" type="line"/>
      <point x="377" y="299" type="line"/>
      <point x="36" y="-65" type="line"/>
    </contour>
  </outline>
</glyph>
<glyph name="lozenge" format="2">
  <advance width="494"/>
  <unicode hex="25CA"/>
  <outline>
    <contour>
      <point x="177" y="0" type="line"/>
      <point x="231" y="0" type="line"/>
      <point x="481" y="342" type="line"/>
      <point x="327" y="686" type="line"/>
      <point x="273" y="686" type="line"/>
      <point x="35" y="342" type="line"/>
    </contour>
    <contour>
      <point x="225" y="103" type="line"/>
      <point x="124" y="351" type="line"/>
      <point x="283" y="582" type="line"/>
      <point x="390" y="333" type="line"/>
    </contour>
  </outline>
</glyph>
<glyph name="leftanglebracket-math" format="2">
  <advance width="273"/>
  <unicode hex="27E8"/>
  <outline>
    <contour>
      <point x="113" y="-157" type="line"/>
      <point x="174" y="-157" type="line"/>
      <point x="133" y="296" type="line"/>
      <point x="299" y="735" type="line"/>
      <point x="239" y="735" type="line"/>
      <point x="35" y="296" type="line"/>
    </contour>
  </outline>
</glyph>
<glyph name="rightanglebracket-math" format="2">
  <advance width="273"/>
  <unicode hex="27E9"/>
  <outline>
    <contour>
      <point x="-19" y="-157" type="line"/>
      <point x="48" y="-157" type="line"/>
      <point x="248" y="296" type="line"/>
      <point x="168" y="735" type="line"/>
      <point x="107" y="735" type="line"/>
      <point x="147" y="299" type="line"/>
    </contour>
  </outline>
</glyph>
<glyph name="commaaccent" format="2">
  <unicode hex="F6C3"/>
  <outline>
    <contour>
      <point x="-56" y="-240" type="line"/>
      <point x="-15" y="-240" type="line"/>
      <point x="24" y="-172" type="line"/>
      <point x="36" y="-88" type="line"/>
      <point x="-49" y="-88" type="line"/>
      <point x="-62" y="-179" type="line"/>
      <point x="-27" y="-179" type="line"/>
    </contour>
  </outline>
</glyph>
<glyph name="Y.loclGUA" format="2">
  <advance width="540"/>
  <anchor x="233" y="0" name="bottom"/>
  <anchor x="329" y="686" name="top"/>
  <anchor x="125" y="686" name="topleft"/>
  <outline>
    <contour>
      <point x="225" y="-12" type="curve" smooth="yes"/>
      <point x="369" y="-12"/>
      <point x="446" y="63"/>
      <point x="473" y="253" type="curve" smooth="yes"/>
      <point x="534" y="686" type="line"/>
      <point x="446" y="686" type="line"/>
      <point x="414" y="458" type="line" smooth="yes"/>
      <point x="397" y="337"/>
      <point x="336" y="274"/>
      <point x="261" y="274" type="curve" smooth="yes"/>
      <point x="191" y="274"/>
      <point x="161" y="319"/>
      <point x="171" y="388" type="curve" smooth="yes"/>
      <point x="213" y="686" type="line"/>
      <point x="125" y="686" type="line"/>
      <point x="84" y="393" type="line" smooth="yes"/>
      <point x="66" y="263"/>
      <point x="124" y="198"/>
      <point x="225" y="198" type="curve" smooth="yes"/>
      <point x="287" y="198"/>
      <point x="340" y="218"/>
      <point x="384" y="294" type="curve"/>
      <point x="391" y="294" type="line"/>
      <point x="384" y="248" type="line" smooth="yes"/>
      <point x="364" y="118"/>
      <point x="310" y="64"/>
      <point x="238" y="64" type="curve" smooth="yes"/>
      <point x="173" y="64"/>
      <point x="131" y="100"/>
      <point x="140" y="168" type="curve"/>
      <point x="52" y="168" type="line"/>
      <point x="51" y="160" type="line" smooth="yes"/>
      <point x="36" y="40"/>
      <point x="111" y="-12"/>
    </contour>
  </outline>
</glyph>
<glyph name=".notdef" format="2">
  <advance width="500"/>
  <outline>
    <contour>
      <point x="-37" y="0" type="line"/>
      <point x="462" y="0" type="line"/>
      <point x="561" y="700" type="line"/>
      <point x="61" y="700" type="line"/>
    </contour>
    <contour>
      <point x="49" y="50" type="line"/>
      <point x="255" y="305" type="line"/>
      <point x="389" y="50" type="line"/>
    </contour>
    <contour>
      <point x="26" y="95" type="line"/>
      <point x="97" y="605" type="line"/>
      <point x="232" y="350" type="line"/>
    </contour>
    <contour>
      <point x="426" y="95" type="line"/>
      <point x="292" y="350" type="line"/>
      <point x="497" y="605" type="line"/>
    </contour>
    <contour>
      <point x="268" y="395" type="line"/>
      <point x="134" y="650" type="line"/>
      <point x="474" y="650" type="line"/>
    </contour>
  </outline>
</glyph>
<glyph name="acute.loclPLK" format="2">
  <advance width="137"/>
  <anchor x="75" y="526" name="_top"/>
  <outline>
    <contour>
      <point x="46" y="591" type="line"/>
      <point x="115" y="591" type="line"/>
      <point x="204" y="740" type="line"/>
      <point x="203" y="743" type="line"/>
      <point x="109" y="743" type="line"/>
    </contour>
  </outline>
</glyph>
<glyph name="acutecomb.case" format="2">
  <anchor x="105" y="526" name="_top"/>
  <anchor x="127" y="686" name="top"/>
  <outline>
    <contour>
      <point x="46" y="591" type="line"/>
      <point x="125" y="591" type="line"/>
      <point x="237" y="690" type="line"/>
      <point x="236" y="693" type="line"/>
      <point x="136" y="693" type="line"/>
    </contour>
  </outline>
</glyph>
<glyph name="brevebelowcomb.case" format="2">
  <anchor x="85" y="0" name="_bottom"/>
  <anchor x="62" y="-182" name="bottom"/>
  <outline>
    <contour>
      <point x="60" y="-185" type="curve" smooth="yes"/>
      <point x="137" y="-185"/>
      <point x="191" y="-133"/>
      <point x="198" y="-88" type="curve"/>
      <point x="132" y="-88" type="line"/>
      <point x="129" y="-102"/>
      <point x="101" y="-121"/>
      <point x="67" y="-121" type="curve" smooth="yes"/>
      <point x="34" y="-121"/>
      <point x="14" y="-102"/>
      <point x="13" y="-88" type="curve"/>
      <point x="-49" y="-88" type="line"/>
      <point x="-56" y="-133"/>
      <point x="-16" y="-185"/>
    </contour>
  </outline>
</glyph>
<glyph name="brevecomb.case" format="2">
  <anchor x="161" y="526" name="_top"/>
  <anchor x="174" y="640" name="top"/>
  <outline>
    <contour>
      <point x="168" y="586" type="curve" smooth="yes"/>
      <point x="245" y="586"/>
      <point x="299" y="638"/>
      <point x="306" y="683" type="curve"/>
      <point x="240" y="683" type="line"/>
      <point x="237" y="669"/>
      <point x="209" y="650"/>
      <point x="175" y="650" type="curve" smooth="yes"/>
      <point x="142" y="650"/>
      <point x="122" y="669"/>
      <point x="121" y="683" type="curve"/>
      <point x="59" y="683" type="line"/>
      <point x="52" y="638"/>
      <point x="92" y="586"/>
    </contour>
  </outline>
</glyph>
<glyph name="breveinvertedcomb.case" format="2">
  <anchor x="161" y="526" name="_top"/>
  <anchor x="189" y="723" name="top"/>
  <outline>
    <contour>
      <point x="51" y="626" type="curve"/>
      <point x="116" y="626" type="line"/>
      <point x="121" y="640"/>
      <point x="147" y="659"/>
      <point x="180" y="659" type="curve" smooth="yes"/>
      <point x="214" y="659"/>
      <point x="235" y="640"/>
      <point x="235" y="626" type="curve"/>
      <point x="298" y="626" type="line"/>
      <point x="305" y="671"/>
      <point x="265" y="723"/>
      <point x="188" y="723" type="curve" smooth="yes"/>
      <point x="112" y="723"/>
      <point x="58" y="671"/>
    </contour>
  </outline>
</glyph>
<glyph name="caroncomb.alt" format="2">
  <anchor x="37" y="526" name="_topright"/>
  <outline>
    <contour>
      <point x="40" y="546" type="line"/>
      <point x="93" y="546" type="line"/>
      <point x="165" y="723" type="line"/>
      <point x="87" y="723" type="line"/>
    </contour>
  </outline>
</glyph>
<glyph name="caroncomb.case" format="2">
  <anchor x="162" y="526" name="_top"/>
  <anchor x="185" y="693" name="top"/>
  <outline>
    <contour>
      <point x="131" y="588" type="line"/>
      <point x="209" y="588" type="line"/>
      <point x="309" y="693" type="line"/>
      <point x="228" y="693" type="line"/>
      <point x="176" y="644" type="line"/>
      <point x="139" y="693" type="line"/>
      <point x="60" y="693" type="line"/>
    </contour>
  </outline>
</glyph>
<glyph name="circumflexcomb.case" format="2">
  <anchor x="162" y="526" name="_top"/>
  <anchor x="176" y="646" name="top"/>
  <outline>
    <contour>
      <point x="46" y="587" type="line"/>
      <point x="127" y="587" type="line"/>
      <point x="179" y="636" type="line"/>
      <point x="216" y="587" type="line"/>
      <point x="295" y="587" type="line"/>
      <point x="224" y="692" type="line"/>
      <point x="146" y="692" type="line"/>
    </contour>
  </outline>
</glyph>
<glyph name="commaaccentcomb.case" format="2">
  <anchor x="7" y="0" name="_bottom"/>
  <anchor x="-17" y="-182" name="bottom"/>
  <outline>
    <contour>
      <point x="-52" y="-240" type="line"/>
      <point x="-12" y="-240" type="line"/>
      <point x="27" y="-172" type="line"/>
      <point x="39" y="-88" type="line"/>
      <point x="-49" y="-88" type="line"/>
      <point x="-62" y="-179" type="line"/>
      <point x="-24" y="-179" type="line"/>
    </contour>
  </outline>
</glyph>
<glyph name="commaturnedabovecomb.case" format="2">
  <anchor x="80" y="526" name="_top"/>
  <anchor x="102" y="686" name="top"/>
  <outline>
    <contour>
      <point x="51" y="628" type="line"/>
      <point x="136" y="628" type="line"/>
      <point x="149" y="719" type="line"/>
      <point x="114" y="719" type="line"/>
      <point x="143" y="780" type="line"/>
      <point x="102" y="780" type="line"/>
      <point x="63" y="712" type="line"/>
    </contour>
  </outline>
</glyph>
<glyph name="dblgravecomb.case" format="2">
  <anchor x="217" y="526" name="_top"/>
  <anchor x="239" y="686" name="top"/>
  <outline>
    <contour>
      <point x="260" y="591" type="line"/>
      <point x="329" y="591" type="line"/>
      <point x="281" y="693" type="line"/>
      <point x="191" y="693" type="line"/>
      <point x="190" y="690" type="line"/>
    </contour>
    <contour>
      <point x="130" y="591" type="line"/>
      <point x="199" y="591" type="line"/>
      <point x="151" y="693" type="line"/>
      <point x="61" y="693" type="line"/>
      <point x="60" y="690" type="line"/>
    </contour>
  </outline>
</glyph>
<glyph name="dieresisbelowcomb.case" format="2">
  <anchor x="82" y="0" name="_bottom"/>
  <anchor x="56" y="-182" name="bottom"/>
  <outline>
    <contour>
      <point x="81" y="-182" type="line"/>
      <point x="174" y="-182" type="line"/>
      <point x="188" y="-88" type="line"/>
      <point x="95" y="-88" type="line"/>
    </contour>
    <contour>
      <point x="-63" y="-182" type="line"/>
      <point x="29" y="-182" type="line"/>
      <point x="43" y="-88" type="line"/>
      <point x="-49" y="-88" type="line"/>
    </contour>
  </outline>
</glyph>
<glyph name="dotaccentcomb.case" format="2">
  <anchor x="82" y="526" name="_top"/>
  <anchor x="110" y="723" name="top"/>
  <outline>
    <contour>
      <point x="51" y="628" type="line"/>
      <point x="139" y="628" type="line"/>
      <point x="153" y="723" type="line"/>
      <point x="65" y="723" type="line"/>
    </contour>
  </outline>
</glyph>
<glyph name="dotbelowcomb.case" format="2">
  <anchor x="12" y="0" name="_bottom"/>
  <anchor x="-14" y="-182" name="bottom"/>
  <outline>
    <contour>
      <point x="-63" y="-182" type="line"/>
      <point x="34" y="-182" type="line"/>
      <point x="48" y="-88" type="line"/>
      <point x="-49" y="-88" type="line"/>
    </contour>
  </outline>
</glyph>
<glyph name="eight.osf" format="2">
  <advance width="456"/>
  <outline>
    <contour>
      <point x="193" y="-10" type="curve" smooth="yes"/>
      <point x="314" y="-10"/>
      <point x="388" y="71"/>
      <point x="388" y="196" type="curve" smooth="yes"/>
      <point x="388" y="243"/>
      <point x="368" y="281"/>
      <point x="325" y="306" type="curve"/>
      <point x="380" y="338"/>
      <point x="414" y="402"/>
      <point x="414" y="471" type="curve" smooth="yes"/>
      <point x="414" y="548"/>
      <point x="366" y="607"/>
      <point x="274" y="607" type="curve" smooth="yes"/>
      <point x="162" y="607"/>
      <point x="92" y="531"/>
      <point x="92" y="413" type="curve" smooth="yes"/>
      <point x="92" y="370"/>
      <point x="108" y="330"/>
      <point x="141" y="306" type="curve"/>
      <point x="77" y="277"/>
      <point x="40" y="211"/>
      <point x="40" y="130" type="curve" smooth="yes"/>
      <point x="40" y="51"/>
      <point x="87" y="-10"/>
    </contour>
    <contour>
      <point x="202" y="61" type="curve" smooth="yes"/>
      <point x="154" y="61"/>
      <point x="125" y="93"/>
      <point x="125" y="143" type="curve" smooth="yes"/>
      <point x="125" y="221"/>
      <point x="165" y="270"/>
      <point x="226" y="270" type="curve" smooth="yes"/>
      <point x="275" y="270"/>
      <point x="303" y="237"/>
      <point x="303" y="187" type="curve" smooth="yes"/>
      <point x="303" y="110"/>
      <point x="264" y="61"/>
    </contour>
    <contour>
      <point x="240" y="340" type="curve" smooth="yes"/>
      <point x="201" y="340"/>
      <point x="174" y="370"/>
      <point x="174" y="418" type="curve" smooth="yes"/>
      <point x="174" y="488"/>
      <point x="211" y="536"/>
      <point x="264" y="536" type="curve" smooth="yes"/>
      <point x="305" y="536"/>
      <point x="332" y="505"/>
      <point x="332" y="458" type="curve" smooth="yes"/>
      <point x="332" y="389"/>
      <point x="294" y="340"/>
    </contour>
  </outline>
</glyph>
<glyph name="five.osf" format="2">
  <advance width="456"/>
  <outline>
    <contour>
      <point x="196" y="-10" type="curve" smooth="yes"/>
      <point x="321" y="-10"/>
      <point x="400" y="89"/>
      <point x="400" y="242" type="curve" smooth="yes"/>
      <point x="400" y="340"/>
      <point x="345" y="388"/>
      <point x="274" y="388" type="curve" smooth="yes"/>
      <point x="226" y="388"/>
      <point x="190" y="366"/>
      <point x="167" y="347" type="curve"/>
      <point x="202" y="516" type="line"/>
      <point x="416" y="516" type="line"/>
      <point x="427" y="597" type="line"/>
      <point x="142" y="597" type="line"/>
      <point x="74" y="266" type="line"/>
      <point x="152" y="254" type="line"/>
      <point x="173" y="291"/>
      <point x="207" y="317"/>
      <point x="244" y="317" type="curve" smooth="yes"/>
      <point x="285" y="317"/>
      <point x="314" y="284"/>
      <point x="314" y="226" type="curve" smooth="yes"/>
      <point x="314" y="133"/>
      <point x="269" y="60"/>
      <point x="206" y="60" type="curve" smooth="yes"/>
      <point x="156" y="60"/>
      <point x="120" y="108"/>
      <point x="131" y="185" type="curve"/>
      <point x="46" y="185" type="line"/>
      <point x="29" y="64"/>
      <point x="90" y="-10"/>
    </contour>
  </outline>
</glyph>
<glyph name="four.osf" format="2">
  <advance width="456"/>
  <outline>
    <contour>
      <point x="236" y="0" type="line"/>
      <point x="318" y="0" type="line"/>
      <point x="338" y="143" type="line"/>
      <point x="401" y="143" type="line"/>
      <point x="411" y="214" type="line"/>
      <point x="348" y="214" type="line"/>
      <point x="391" y="519" type="line"/>
      <point x="352" y="519" type="line"/>
      <point x="333" y="472"/>
      <point x="316" y="431"/>
      <point x="290" y="385" type="curve"/>
      <point x="266" y="214" type="line"/>
      <point x="109" y="214" type="line"/>
      <point x="150" y="262"/>
      <point x="271" y="450"/>
      <point x="328" y="607" type="curve"/>
      <point x="243" y="607" type="line"/>
      <point x="188" y="473"/>
      <point x="115" y="331"/>
      <point x="31" y="214" type="curve"/>
      <point x="21" y="143" type="line"/>
      <point x="256" y="143" type="line"/>
    </contour>
  </outline>
</glyph>
<glyph name="gravecomb.case" format="2">
  <anchor x="161" y="526" name="_top"/>
  <anchor x="183" y="686" name="top"/>
  <outline>
    <contour>
      <point x="154" y="591" type="line"/>
      <point x="223" y="591" type="line"/>
      <point x="151" y="693" type="line"/>
      <point x="61" y="693" type="line"/>
      <point x="60" y="690" type="line"/>
    </contour>
  </outline>
</glyph>
<glyph name="hookabovecomb.case" format="2">
  <anchor x="106" y="526" name="_top"/>
  <anchor x="131" y="713" name="top"/>
  <outline>
    <contour>
      <point x="85" y="586" type="line"/>
      <point x="141" y="586" type="line"/>
      <point x="144" y="609" type="line"/>
      <point x="178" y="613"/>
      <point x="201" y="640"/>
      <point x="201" y="675" type="curve" smooth="yes"/>
      <point x="201" y="715"/>
      <point x="161" y="725"/>
      <point x="128" y="725" type="curve" smooth="yes"/>
      <point x="110" y="725"/>
      <point x="83" y="722"/>
      <point x="64" y="717" type="curve"/>
      <point x="59" y="678" type="line"/>
      <point x="109" y="678" type="line" smooth="yes"/>
      <point x="126" y="678"/>
      <point x="138" y="675"/>
      <point x="138" y="663" type="curve" smooth="yes"/>
      <point x="138" y="647"/>
      <point x="124" y="642"/>
      <point x="106" y="642" type="curve" smooth="yes"/>
      <point x="93" y="642" type="line"/>
    </contour>
  </outline>
</glyph>
<glyph name="horncomb.case" format="2">
  <anchor x="37" y="526" name="_topright"/>
  <anchor x="53" y="640" name="topright"/>
  <outline>
    <contour>
      <point x="29" y="471" type="line"/>
      <point x="104" y="471" type="line" smooth="yes"/>
      <point x="176" y="471"/>
      <point x="215" y="506"/>
      <point x="225" y="579" type="curve" smooth="yes"/>
      <point x="235" y="650" type="line"/>
      <point x="160" y="650" type="line"/>
      <point x="150" y="579" type="line" smooth="yes"/>
      <point x="145" y="543"/>
      <point x="126" y="526"/>
      <point x="92" y="526" type="curve" smooth="yes"/>
      <point x="37" y="526" type="line"/>
    </contour>
  </outline>
</glyph>
<glyph name="macronbelowcomb.case" format="2">
  <anchor x="88" y="0" name="_bottom"/>
  <anchor x="63" y="-183" name="bottom"/>
  <outline>
    <contour>
      <point x="-59" y="-160" type="line"/>
      <point x="190" y="-160" type="line"/>
      <point x="200" y="-88" type="line"/>
      <point x="-49" y="-88" type="line"/>
    </contour>
  </outline>
</glyph>
<glyph name="macroncomb.case" format="2">
  <anchor x="162" y="526" name="_top"/>
  <anchor x="182" y="671" name="top"/>
  <outline>
    <contour>
      <point x="47" y="599" type="line"/>
      <point x="297" y="599" type="line"/>
      <point x="307" y="671" type="line"/>
      <point x="57" y="671" type="line"/>
    </contour>
  </outline>
</glyph>
<glyph name="nine.osf" format="2">
  <advance width="456"/>
  <outline>
    <contour>
      <point x="195" y="-10" type="curve" smooth="yes"/>
      <point x="332" y="-10"/>
      <point x="413" y="145"/>
      <point x="413" y="411" type="curve" smooth="yes"/>
      <point x="413" y="548"/>
      <point x="355" y="607"/>
      <point x="265" y="607" type="curve" smooth="yes"/>
      <point x="148" y="607"/>
      <point x="72" y="516"/>
      <point x="72" y="372" type="curve" smooth="yes"/>
      <point x="72" y="282"/>
      <point x="124" y="222"/>
      <point x="204" y="222" type="curve" smooth="yes"/>
      <point x="249" y="222"/>
      <point x="286" y="242"/>
      <point x="317" y="275" type="curve"/>
      <point x="307" y="172"/>
      <point x="272" y="61"/>
      <point x="203" y="61" type="curve" smooth="yes"/>
      <point x="151" y="61"/>
      <point x="129" y="107"/>
      <point x="140" y="184" type="curve"/>
      <point x="59" y="184" type="line"/>
      <point x="43" y="73"/>
      <point x="87" y="-10"/>
    </contour>
    <contour>
      <point x="231" y="292" type="curve" smooth="yes"/>
      <point x="183" y="292"/>
      <point x="157" y="330"/>
      <point x="157" y="382" type="curve" smooth="yes"/>
      <point x="157" y="470"/>
      <point x="196" y="536"/>
      <point x="257" y="536" type="curve" smooth="yes"/>
      <point x="300" y="536"/>
      <point x="330" y="498"/>
      <point x="330" y="446" type="curve" smooth="yes"/>
      <point x="330" y="357"/>
      <point x="295" y="292"/>
    </contour>
  </outline>
</glyph>
<glyph name="ogonekcomb.case" format="2">
  <anchor x="71" y="0" name="_ogonek"/>
  <outline>
    <contour>
      <point x="30" y="-190" type="curve" smooth="yes"/>
      <point x="51" y="-190"/>
      <point x="72" y="-185"/>
      <point x="94" y="-176" type="curve"/>
      <point x="101" y="-125" type="line"/>
      <point x="74" y="-125" type="line" smooth="yes"/>
      <point x="41" y="-125"/>
      <point x="25" y="-113"/>
      <point x="25" y="-87" type="curve" smooth="yes"/>
      <point x="25" y="-62"/>
      <point x="42" y="-29"/>
      <point x="71" y="0" type="curve"/>
      <point x="70" y="4" type="line"/>
      <point x="12" y="4" type="line"/>
      <point x="-29" y="-32"/>
      <point x="-52" y="-76"/>
      <point x="-52" y="-118" type="curve" smooth="yes"/>
      <point x="-52" y="-164"/>
      <point x="-23" y="-190"/>
    </contour>
  </outline>
</glyph>
<glyph name="one.osf" format="2">
  <advance width="456"/>
  <outline>
    <contour>
      <point x="8" y="0" type="line"/>
      <point x="368" y="0" type="line"/>
      <point x="378" y="71" type="line"/>
      <point x="240" y="71" type="line"/>
      <point x="314" y="597" type="line"/>
      <point x="279" y="597" type="line"/>
      <point x="213" y="561"/>
      <point x="127" y="537"/>
      <point x="82" y="532" type="curve"/>
      <point x="74" y="479" type="line"/>
      <point x="215" y="479" type="line"/>
      <point x="158" y="71" type="line"/>
      <point x="18" y="71" type="line"/>
    </contour>
  </outline>
</glyph>
<glyph name="periodcentered.loclCAT.case" format="2">
  <advance width="273"/>
  <anchor x="154" y="386" name="_center"/>
  <outline>
    <contour>
      <point x="97" y="336" type="line"/>
      <point x="197" y="336" type="line"/>
      <point x="211" y="436" type="line"/>
      <point x="111" y="436" type="line"/>
    </contour>
  </outline>
</glyph>
<glyph name="ringcomb.case" format="2">
  <anchor x="133" y="526" name="_top"/>
  <anchor x="165" y="754" name="top"/>
  <outline>
    <contour>
      <point x="139" y="562" type="curve" smooth="yes"/>
      <point x="202" y="562"/>
      <point x="249" y="609"/>
      <point x="249" y="672" type="curve" smooth="yes"/>
      <point x="249" y="719"/>
      <point x="213" y="754"/>
      <point x="165" y="754" type="curve" smooth="yes"/>
      <point x="102" y="754"/>
      <point x="55" y="707"/>
      <point x="55" y="645" type="curve" smooth="yes"/>
      <point x="55" y="598"/>
      <point x="91" y="562"/>
    </contour>
    <contour>
      <point x="146" y="612" type="curve" smooth="yes"/>
      <point x="123" y="612"/>
      <point x="106" y="630"/>
      <point x="106" y="654" type="curve" smooth="yes"/>
      <point x="106" y="682"/>
      <point x="128" y="704"/>
      <point x="158" y="704" type="curve" smooth="yes"/>
      <point x="181" y="704"/>
      <point x="199" y="687"/>
      <point x="199" y="665" type="curve" smooth="yes"/>
      <point x="199" y="635"/>
      <point x="176" y="612"/>
    </contour>
  </outline>
</glyph>
<glyph name="seven.osf" format="2">
  <advance width="456"/>
  <outline>
    <contour>
      <point x="90" y="0" type="curve"/>
      <point x="187" y="0" type="line"/>
      <point x="190" y="24"/>
      <point x="190" y="26"/>
      <point x="193" y="46" type="curve" smooth="yes"/>
      <point x="221" y="233"/>
      <point x="347" y="421"/>
      <point x="447" y="543" type="curve"/>
      <point x="454" y="597" type="line"/>
      <point x="99" y="597" type="line"/>
      <point x="88" y="516" type="line"/>
      <point x="343" y="516" type="line"/>
      <point x="240" y="391"/>
      <point x="119" y="197"/>
    </contour>
  </outline>
</glyph>
<glyph name="six.osf" format="2">
  <advance width="456"/>
  <outline>
    <contour>
      <point x="203" y="-10" type="curve" smooth="yes"/>
      <point x="321" y="-10"/>
      <point x="393" y="83"/>
      <point x="393" y="227" type="curve" smooth="yes"/>
      <point x="393" y="313"/>
      <point x="352" y="375"/>
      <point x="264" y="375" type="curve" smooth="yes"/>
      <point x="221" y="375"/>
      <point x="180" y="355"/>
      <point x="150" y="322" type="curve"/>
      <point x="159" y="429"/>
      <point x="200" y="536"/>
      <point x="266" y="536" type="curve" smooth="yes"/>
      <point x="315" y="536"/>
      <point x="337" y="491"/>
      <point x="326" y="413" type="curve"/>
      <point x="406" y="413" type="line"/>
      <point x="422" y="528"/>
      <point x="384" y="607"/>
      <point x="280" y="607" type="curve" smooth="yes"/>
      <point x="134" y="607"/>
      <point x="52" y="453"/>
      <point x="52" y="176" type="curve" smooth="yes"/>
      <point x="52" y="46"/>
      <point x="113" y="-10"/>
    </contour>
    <contour>
      <point x="208" y="61" type="curve" smooth="yes"/>
      <point x="161" y="61"/>
      <point x="137" y="102"/>
      <point x="137" y="164" type="curve" smooth="yes"/>
      <point x="137" y="247"/>
      <point x="176" y="305"/>
      <point x="239" y="305" type="curve" smooth="yes"/>
      <point x="286" y="305"/>
      <point x="307" y="268"/>
      <point x="307" y="206" type="curve" smooth="yes"/>
      <point x="307" y="127"/>
      <point x="267" y="61"/>
    </contour>
  </outline>
</glyph>
<glyph name="three.osf" format="2">
  <advance width="456"/>
  <outline>
    <contour>
      <point x="189" y="-10" type="curve" smooth="yes"/>
      <point x="301" y="-10"/>
      <point x="386" y="76"/>
      <point x="386" y="190" type="curve" smooth="yes"/>
      <point x="386" y="255"/>
      <point x="353" y="291"/>
      <point x="313" y="306" type="curve"/>
      <point x="314" y="310" type="line"/>
      <point x="357" y="332"/>
      <point x="415" y="376"/>
      <point x="415" y="476" type="curve" smooth="yes"/>
      <point x="415" y="561"/>
      <point x="357" y="607"/>
      <point x="271" y="607" type="curve" smooth="yes"/>
      <point x="175" y="607"/>
      <point x="104" y="543"/>
      <point x="88" y="444" type="curve" smooth="yes"/>
      <point x="85" y="425" type="line"/>
      <point x="169" y="425" type="line"/>
      <point x="171" y="436" type="line" smooth="yes"/>
      <point x="183" y="503"/>
      <point x="218" y="536"/>
      <point x="264" y="536" type="curve" smooth="yes"/>
      <point x="301" y="536"/>
      <point x="330" y="513"/>
      <point x="330" y="462" type="curve" smooth="yes"/>
      <point x="330" y="392"/>
      <point x="288" y="339"/>
      <point x="232" y="339" type="curve" smooth="yes"/>
      <point x="184" y="339" type="line"/>
      <point x="174" y="268" type="line"/>
      <point x="220" y="268" type="line" smooth="yes"/>
      <point x="264" y="268"/>
      <point x="302" y="250"/>
      <point x="302" y="190" type="curve" smooth="yes"/>
      <point x="302" y="113"/>
      <point x="260" y="61"/>
      <point x="194" y="61" type="curve" smooth="yes"/>
      <point x="135" y="61"/>
      <point x="110" y="102"/>
      <point x="120" y="166" type="curve" smooth="yes"/>
      <point x="122" y="179" type="line"/>
      <point x="39" y="179" type="line"/>
      <point x="38" y="169" type="line" smooth="yes"/>
      <point x="27" y="60"/>
      <point x="76" y="-10"/>
    </contour>
  </outline>
</glyph>
<glyph name="tildecomb.case" format="2">
  <anchor x="170" y="526" name="_top"/>
  <anchor x="194" y="686" name="top"/>
  <outline>
    <contour>
      <point x="47" y="594" type="curve"/>
      <point x="99" y="594" type="line"/>
      <point x="105" y="615"/>
      <point x="118" y="622"/>
      <point x="134" y="622" type="curve" smooth="yes"/>
      <point x="169" y="622"/>
      <point x="185" y="594"/>
      <point x="234" y="594" type="curve" smooth="yes"/>
      <point x="299" y="594"/>
      <point x="319" y="646"/>
      <point x="325" y="688" type="curve"/>
      <point x="273" y="688" type="line"/>
      <point x="267" y="667"/>
      <point x="254" y="660"/>
      <point x="238" y="660" type="curve" smooth="yes"/>
      <point x="203" y="660"/>
      <point x="187" y="688"/>
      <point x="138" y="688" type="curve" smooth="yes"/>
      <point x="73" y="688"/>
      <point x="53" y="636"/>
    </contour>
  </outline>
</glyph>
<glyph name="two.osf" format="2">
  <advance width="456"/>
  <outline>
    <contour>
      <point x="20" y="0" type="line"/>
      <point x="360" y="0" type="line"/>
      <point x="371" y="81" type="line"/>
      <point x="134" y="81" type="line"/>
      <point x="139" y="89"/>
      <point x="145" y="97"/>
      <point x="156" y="110" type="curve" smooth="yes"/>
      <point x="241" y="210"/>
      <point x="423" y="321"/>
      <point x="423" y="482" type="curve" smooth="yes"/>
      <point x="423" y="570"/>
      <point x="359" y="607"/>
      <point x="278" y="607" type="curve" smooth="yes"/>
      <point x="159" y="607"/>
      <point x="83" y="525"/>
      <point x="83" y="399" type="curve" smooth="yes"/>
      <point x="83" y="395"/>
      <point x="83" y="392"/>
      <point x="83" y="392" type="curve"/>
      <point x="168" y="392" type="line"/>
      <point x="173" y="427" type="line" smooth="yes"/>
      <point x="181" y="484"/>
      <point x="210" y="534"/>
      <point x="268" y="534" type="curve" smooth="yes"/>
      <point x="320" y="534"/>
      <point x="336" y="501"/>
      <point x="336" y="468" type="curve" smooth="yes"/>
      <point x="336" y="350"/>
      <point x="176" y="253"/>
      <point x="91" y="156" type="curve" smooth="yes"/>
      <point x="57" y="117"/>
      <point x="30" y="70"/>
      <point x="22" y="14" type="curve" smooth="yes"/>
    </contour>
  </outline>
</glyph>
<glyph name="y.loclGUA" format="2">
  <advance width="468"/>
  <anchor x="197" y="0" name="bottom"/>
  <anchor x="271" y="526" name="top"/>
  <outline>
    <contour>
      <point x="180" y="-182" type="curve" smooth="yes"/>
      <point x="297" y="-182"/>
      <point x="358" y="-98"/>
      <point x="381" y="63" type="curve" smooth="yes"/>
      <point x="446" y="526" type="line"/>
      <point x="358" y="526" type="line"/>
      <point x="314" y="213" type="line" smooth="yes"/>
      <point x="303" y="134"/>
      <point x="259" y="81"/>
      <point x="207" y="81" type="curve" smooth="yes"/>
      <point x="154" y="81"/>
      <point x="128" y="115"/>
      <point x="139" y="193" type="curve" smooth="yes"/>
      <point x="186" y="526" type="line"/>
      <point x="98" y="526" type="line"/>
      <point x="50" y="187" type="line" smooth="yes"/>
      <point x="32" y="57"/>
      <point x="90" y="8"/>
      <point x="186" y="8" type="curve" smooth="yes"/>
      <point x="225" y="8"/>
      <point x="263" y="31"/>
      <point x="288" y="80" type="curve"/>
      <point x="296" y="80" type="line"/>
      <point x="293" y="59" type="line" smooth="yes"/>
      <point x="277" y="-55"/>
      <point x="244" y="-110"/>
      <point x="187" y="-110" type="curve" smooth="yes"/>
      <point x="141" y="-110"/>
      <point x="102" y="-86"/>
      <point x="108" y="-25" type="curve"/>
      <point x="22" y="-25" type="line"/>
      <point x="21" y="-35" type="line" smooth="yes"/>
      <point x="11" y="-135"/>
      <point x="81" y="-182"/>
    </contour>
  </outline>
</glyph>
<glyph name="zero.osf" format="2">
  <advance width="456"/>
  <outline>
    <contour>
      <point x="190" y="-10" type="curve" smooth="yes"/>
      <point x="328" y="-10"/>
      <point x="415" y="158"/>
      <point x="415" y="423" type="curve" smooth="yes"/>
      <point x="415" y="564"/>
      <point x="362" y="607"/>
      <point x="276" y="607" type="curve" smooth="yes"/>
      <point x="139" y="607"/>
      <point x="52" y="439"/>
      <point x="52" y="173" type="curve" smooth="yes"/>
      <point x="52" y="33"/>
      <point x="104" y="-10"/>
    </contour>
    <contour>
      <point x="200" y="61" type="curve" smooth="yes"/>
      <point x="123" y="61"/>
      <point x="128" y="165"/>
      <point x="142" y="268" type="curve" smooth="yes"/>
      <point x="150" y="329" type="line" smooth="yes"/>
      <point x="165" y="445"/>
      <point x="194" y="536"/>
      <point x="266" y="536" type="curve" smooth="yes"/>
      <point x="344" y="536"/>
      <point x="337" y="430"/>
      <point x="324" y="329" type="curve" smooth="yes"/>
      <point x="316" y="268" type="line"/>
      <point x="298" y="143"/>
      <point x="270" y="61"/>
    </contour>
  </outline>
</glyph>
<glyph name="zero.osf.zero" format="2">
  <advance width="456"/>
  <outline>
    <contour>
      <point x="112" y="39" type="line"/>
      <point x="156" y="39" type="line"/>
      <point x="344" y="559" type="line"/>
      <point x="300" y="559" type="line"/>
    </contour>
    <component base="zero.tosf"/>
  </outline>
</glyph>
<glyph name="zero.zero" format="2">
  <advance width="456"/>
  <outline>
    <contour>
      <point x="96" y="66" type="line"/>
      <point x="148" y="66" type="line"/>
      <point x="380" y="642" type="line"/>
      <point x="328" y="642" type="line"/>
    </contour>
    <component base="zero"/>
  </outline>
</glyph>
